<?xml version="1.0" standalone="no"?>
<!DOCTYPE svg PUBLIC "-//W3C//DTD SVG 20010904//EN"
 "http://www.w3.org/TR/2001/REC-SVG-20010904/DTD/svg10.dtd">
<svg version="1.0" xmlns="http://www.w3.org/2000/svg"
 width="1280.000000pt" height="892.000000pt" viewBox="0 0 1280.000000 892.000000"
 preserveAspectRatio="xMidYMid meet">

<g transform="translate(0.000000,892.000000) scale(0.100000,-0.100000)"
fill="#000000" stroke="none">
<path d="M7230 8889 c-640 -164 -1223 -326 -1720 -479 -1578 -485 -3206 -1127
-4754 -1874 -129 -62 -211 -96 -232 -96 -19 0 -64 -10 -101 -22 -70 -23 -105
-52 -220 -179 -67 -75 -109 -174 -156 -374 -50 -211 -55 -363 -26 -700 14
-155 31 -237 76 -360 39 -108 181 -393 256 -516 26 -42 53 -95 61 -117 43
-122 234 -416 499 -771 104 -139 230 -315 280 -390 119 -178 241 -339 379
-502 62 -72 147 -176 189 -231 42 -55 117 -145 166 -201 48 -56 118 -138 153
-182 91 -112 265 -301 464 -505 94 -96 249 -258 345 -360 378 -404 908 -888
1051 -960 62 -31 189 -72 202 -64 4 3 8 12 8 20 0 21 26 17 42 -7 l14 -22 149
17 c277 32 587 93 1090 218 1141 281 2120 642 3155 1164 798 402 1488 827
2203 1357 178 132 187 141 193 178 4 21 11 39 17 39 6 0 35 -19 66 -42 178
-135 248 -165 360 -153 116 11 226 35 237 51 7 8 29 18 50 21 45 7 123 44 150
70 9 10 50 40 90 68 255 176 491 454 646 760 22 44 55 109 74 145 18 36 33 74
32 85 -3 26 9 85 32 160 38 126 43 161 44 289 1 146 -11 198 -65 279 -27 41
-152 142 -221 178 -12 6 -50 33 -83 58 -80 63 -150 110 -210 143 l-50 27 3
133 c4 156 -14 301 -58 464 -94 353 -179 474 -480 685 -58 41 -139 101 -180
134 -41 33 -120 91 -175 128 -55 38 -137 96 -181 130 -45 34 -120 88 -165 120
-46 31 -147 101 -224 154 -846 583 -1791 1150 -2820 1691 -259 136 -346 170
-384 150 -19 -11 -25 -10 -36 5 -18 25 -99 21 -235 -14z m195 1 c4 -6 2 -17
-4 -24 -7 -8 -22 -45 -35 -82 l-23 -69 -89 -22 c-49 -13 -210 -52 -357 -89
-1435 -352 -2848 -833 -4153 -1413 -632 -280 -1703 -816 -1743 -872 -10 -15
-26 -19 -71 -19 -134 0 -495 -44 -682 -83 -38 -8 -68 -11 -68 -7 0 38 453 267
1230 622 1762 805 3589 1461 5335 1917 601 157 645 166 660 141z m180 -25
c137 -51 942 -488 1480 -803 592 -346 1223 -747 1621 -1029 l110 -78 -33 -43
c-18 -24 -31 -47 -28 -52 10 -17 85 -71 85 -62 0 5 -18 21 -41 36 -33 22 -38
30 -28 42 17 20 21 19 73 -27 25 -22 46 -36 46 -31 0 5 -22 27 -50 48 -46 35
-49 39 -33 56 15 17 18 16 62 -20 69 -56 81 -65 81 -59 0 3 -23 24 -51 46 -81
64 -50 48 68 -35 138 -98 236 -174 246 -191 4 -7 14 -13 21 -13 15 0 134 -81
212 -144 37 -31 50 -46 37 -46 -34 0 -118 47 -150 83 -18 21 -36 37 -40 37 -4
0 13 -21 37 -46 50 -51 109 -83 155 -84 35 0 244 -143 344 -235 55 -52 141
-165 141 -186 0 -5 -24 1 -52 12 -212 85 -492 163 -732 204 l-88 15 -172 166
c-659 641 -1445 1217 -2331 1708 -259 144 -684 356 -950 475 -199 89 -200 90
-199 120 2 43 59 161 78 161 9 0 45 -11 81 -25z m-151 -51 c-14 -31 -26 -72
-27 -92 -2 -35 -2 -35 88 -75 886 -390 1657 -834 2373 -1364 373 -276 672
-531 1075 -915 l133 -126 99 -17 c250 -42 592 -141 759 -220 36 -17 53 -54 19
-41 -346 133 -612 208 -821 232 l-62 7 -58 -45 c-31 -25 -172 -121 -312 -215
-1000 -666 -1920 -1185 -2953 -1665 -1118 -518 -2119 -898 -3202 -1213 -88
-25 -190 -55 -226 -66 l-66 -19 -40 -87 c-134 -290 -208 -601 -215 -906 l-3
-109 60 -19 c363 -115 700 -174 1350 -234 403 -37 568 -45 910 -45 622 0 1075
58 1730 221 565 141 871 252 1340 487 536 268 781 455 1369 1046 175 177 317
315 315 308 -6 -18 -588 -611 -716 -728 -306 -279 -577 -462 -982 -664 -412
-205 -706 -318 -1106 -424 -766 -202 -1318 -280 -2000 -279 -317 1 -453 8
-890 49 -595 55 -910 108 -1258 211 -66 19 -121 33 -123 31 -7 -8 -24 -431
-24 -613 0 -183 19 -509 40 -685 21 -173 56 -310 106 -413 13 -28 22 -52 19
-55 -11 -12 -36 12 -58 55 -109 215 -153 734 -128 1522 14 440 22 547 56 717
39 196 95 363 201 610 3 6 -93 77 -213 157 -534 356 -986 724 -1452 1182 -575
566 -1041 1139 -1466 1804 l-79 124 -175 -6 c-174 -6 -373 -32 -569 -76 -71
-15 -85 -16 -89 -4 -7 19 -1 23 45 34 176 39 568 89 704 89 62 0 75 3 97 24
53 50 850 459 1327 681 1563 729 3199 1288 4959 1697 60 14 60 14 76 65 27 83
50 123 70 123 17 0 16 -4 -7 -56z m-7059 -2454 c-55 -26 -101 -47 -103 -45 -2
1 15 17 37 34 43 35 102 59 141 60 16 0 -11 -17 -75 -49z m758 -362 c784
-1191 1781 -2188 2939 -2940 l117 -76 -50 -118 c-91 -214 -165 -503 -188 -728
-5 -54 -12 -100 -14 -102 -8 -8 -113 36 -173 72 -86 52 -146 100 -353 283
-290 257 -1019 941 -1365 1281 -413 406 -795 848 -1228 1420 -349 462 -496
674 -571 825 -41 82 -84 202 -75 210 6 5 259 53 370 70 106 16 269 31 380 34
l57 1 154 -232z m10083 167 c199 -35 410 -95 637 -182 136 -53 127 -33 103
-223 -22 -170 -73 -360 -97 -360 -7 0 -48 22 -93 48 -156 93 -212 120 -313
151 -190 59 -311 57 -439 -5 -119 -56 -154 -129 -175 -359 -11 -120 -7 -344 7
-448 6 -51 29 -157 54 -252 10 -38 24 -95 30 -125 7 -30 19 -75 26 -99 8 -25
14 -53 14 -64 0 -11 24 -93 54 -182 57 -170 76 -250 67 -277 -10 -27 -471
-497 -642 -655 -421 -388 -780 -623 -1284 -843 -653 -284 -1225 -440 -1960
-534 -516 -67 -1075 -74 -1640 -20 -697 65 -1107 132 -1464 240 l-84 26 6 106
c15 256 103 576 223 813 l23 46 203 58 c1251 355 2597 884 3878 1525 679 339
1278 680 1980 1128 253 162 693 458 714 481 23 25 53 26 172 6z m-11052 -96
c8 -44 88 -209 143 -299 63 -102 179 -264 422 -590 443 -594 826 -1044 1231
-1450 282 -281 1064 -1018 1385 -1306 322 -287 396 -341 528 -389 l62 -23 -5
-228 c-22 -997 15 -1449 136 -1681 19 -36 32 -69 29 -71 -7 -7 -110 25 -157
49 -37 19 -97 105 -133 192 -15 36 -15 38 2 35 10 -2 19 4 21 15 4 20 -24 57
-42 57 -21 0 -34 15 -41 48 -6 29 -4 33 12 30 12 -2 19 4 21 20 3 16 -5 27
-27 40 -17 9 -31 22 -31 29 0 6 -3 19 -7 28 -5 14 -2 16 15 11 11 -4 23 -2 26
3 12 19 -5 58 -30 70 -32 14 -33 51 -1 51 20 0 23 4 19 29 -2 18 -13 33 -28
40 -31 14 -35 62 -4 54 35 -9 36 25 1 61 -39 40 -44 93 -8 98 36 5 35 44 -2
63 -26 13 -31 21 -31 54 0 35 2 38 25 33 21 -4 25 -1 25 22 0 16 -9 31 -25 42
-20 13 -25 25 -25 58 0 38 3 42 22 42 35 -1 34 31 -1 61 -27 24 -31 34 -31 81
0 49 2 53 23 50 18 -2 23 2 25 24 3 22 -2 30 -22 40 -23 10 -26 17 -26 65 0
50 1 53 25 53 35 0 35 43 0 66 -22 14 -25 24 -25 70 0 53 1 54 25 48 23 -6 25
-3 25 24 0 20 -7 36 -21 46 -15 10 -23 28 -26 58 -10 104 -83 194 -333 408
-642 550 -1625 1526 -2081 2065 -227 270 -776 990 -920 1207 -120 181 -204
361 -192 409 8 29 20 23 27 -12z m61 -264 c64 -116 175 -273 433 -615 473
-625 648 -835 1077 -1290 420 -444 1152 -1144 1577 -1508 187 -159 276 -251
306 -314 25 -50 38 -108 26 -108 -15 0 -88 63 -435 374 -1194 1071 -1779 1686
-2435 2561 -304 405 -478 651 -541 765 -56 102 -133 337 -115 354 3 3 19 -29
36 -72 17 -42 49 -108 71 -147z m-90 80 c59 -203 108 -282 547 -872 703 -948
1288 -1572 2418 -2583 157 -140 330 -296 385 -346 55 -50 114 -99 130 -110 49
-30 85 -68 85 -87 0 -15 -3 -16 -22 -6 -13 7 -25 15 -28 18 -3 4 -57 49 -120
101 -334 273 -561 482 -1305 1201 -505 488 -695 689 -1017 1076 -277 331 -707
898 -907 1193 -136 201 -227 409 -209 479 5 18 11 31 13 29 3 -2 16 -44 30
-93z m-57 33 c0 -72 105 -294 215 -456 148 -216 522 -716 746 -997 375 -467
646 -757 1291 -1379 643 -620 893 -849 1212 -1109 l107 -88 -6 -52 c-3 -29 -7
-54 -9 -55 -10 -13 -234 184 -848 748 -1080 991 -1533 1496 -2341 2610 -258
356 -349 527 -375 708 -12 84 -12 92 -1 92 5 0 9 -10 9 -22z m11962 -112 c57
-176 81 -313 86 -498 3 -93 2 -168 -2 -168 -3 0 -28 18 -56 39 -27 22 -53 41
-59 43 -5 2 -12 19 -14 38 -3 27 -16 46 -56 82 l-51 46 21 64 c36 109 60 228
73 356 7 67 15 117 19 110 4 -7 22 -58 39 -112z m-11996 9 c-4 -8 -8 -15 -10
-15 -2 0 -4 7 -4 15 0 8 4 15 10 15 5 0 7 -7 4 -15z m85 -194 c68 -153 177
-315 536 -796 547 -732 858 -1090 1466 -1690 397 -391 1396 -1304 1479 -1352
57 -33 90 -63 90 -80 0 -45 -157 67 -393 280 -949 858 -1449 1346 -1918 1872
-231 260 -419 494 -716 891 -417 559 -539 746 -608 928 -19 49 -20 65 -12 99
l10 41 17 -60 c9 -32 31 -92 49 -133z m108 -286 c118 -178 458 -642 682 -930
471 -608 1059 -1221 1961 -2046 417 -381 561 -510 663 -587 l97 -75 0 -49 c0
-26 -3 -48 -6 -48 -13 0 -236 174 -333 261 -57 50 -280 255 -495 454 -1011
935 -1499 1463 -2116 2290 -335 449 -510 707 -569 837 -28 60 -71 197 -71 223
0 5 24 -39 54 -100 29 -60 89 -164 133 -230z m-179 251 c35 -137 104 -262 299
-539 318 -454 706 -955 992 -1282 427 -488 994 -1047 1876 -1849 125 -114 279
-240 362 -297 26 -18 54 -39 61 -46 8 -7 22 -18 33 -23 22 -12 26 -40 5 -40
-43 0 -298 204 -606 485 -829 756 -1530 1465 -1976 2000 -297 356 -633 811
-909 1231 -128 195 -156 256 -162 359 -5 78 6 78 25 1z m11240 3 c43 -38 92
-63 92 -48 0 6 7 8 18 5 9 -4 -1 9 -23 29 l-40 35 43 -15 c24 -8 60 -28 80
-45 48 -39 68 -39 22 1 -65 56 7 11 199 -125 102 -73 213 -150 246 -171 l60
-39 -80 -9 c-178 -18 -304 -65 -469 -173 -77 -51 -141 -107 -266 -234 -91 -91
-183 -189 -205 -217 -22 -29 -43 -52 -47 -53 -9 0 -28 58 -28 86 0 13 10 34
22 46 l22 22 -36 30 c-23 20 -37 42 -40 64 -6 40 5 40 56 2 46 -35 66 -37 90
-11 17 19 16 21 -46 67 -34 25 -73 51 -84 56 -21 10 -34 45 -34 90 0 19 1 20
23 4 46 -33 54 -36 54 -19 0 8 -18 26 -39 40 -21 15 -38 34 -38 44 0 24 5 24
43 -5 38 -27 57 -39 57 -33 0 2 -20 18 -45 36 -40 29 -45 36 -45 72 0 21 3 39
6 39 3 0 31 -18 63 -40 65 -46 71 -47 95 -21 16 18 16 20 -10 45 -16 14 -31
23 -34 20 -3 -3 6 -15 19 -25 18 -15 21 -23 13 -31 -8 -8 -26 0 -67 31 -30 23
-62 44 -70 47 -8 4 -15 15 -15 25 0 20 15 26 25 9 3 -5 12 -10 18 -10 7 1 0
11 -15 23 -24 19 -27 27 -21 60 3 20 10 37 15 37 5 0 7 -4 4 -8 -3 -5 7 -18
23 -29 22 -17 28 -18 28 -6 0 8 -15 25 -34 37 -18 11 -33 29 -33 39 0 23 9 22
53 -9 21 -14 41 -24 43 -21 3 2 -16 18 -41 33 -39 25 -45 32 -40 54 4 14 9 27
11 29 2 3 31 -14 64 -37 64 -46 70 -48 70 -29 0 6 -23 26 -51 42 -62 37 -76
52 -62 66 8 8 29 -1 72 -30 34 -23 61 -38 61 -34 0 4 -25 24 -55 43 -30 19
-55 40 -55 47 0 6 14 21 31 33 30 22 30 22 52 2 33 -29 107 -76 112 -70 3 3
-22 24 -56 48 -44 31 -58 45 -50 53 8 8 16 8 25 2 63 -47 122 -85 130 -85 6 0
-18 19 -52 43 -34 23 -60 47 -59 52 8 25 49 14 107 -29 34 -25 66 -46 72 -46
16 0 1 15 -51 50 -28 19 -51 38 -51 43 0 10 48 9 54 -2 9 -15 106 -82 106 -73
0 4 -23 22 -50 41 -28 19 -50 37 -50 41 0 16 57 -5 88 -31z m50 -1 c23 -17 40
-34 38 -36 -5 -5 -82 44 -91 58 -12 19 12 10 53 -22z m-11341 -40 c-3 -7 -5
-2 -5 12 0 14 2 19 5 13 2 -7 2 -19 0 -25z m11822 -156 c94 -52 151 -101 151
-127 0 -15 -3 -15 -32 4 -77 48 -357 247 -358 253 0 4 35 -13 78 -38 42 -24
115 -66 161 -92z m-11760 1 c61 -194 106 -268 489 -795 280 -385 408 -553 590
-771 489 -588 1193 -1298 2137 -2157 212 -192 255 -227 345 -280 62 -36 86
-60 73 -73 -2 -3 -21 2 -41 10 -94 39 -236 155 -637 523 -1181 1082 -1793
1747 -2482 2700 -421 583 -513 741 -513 887 0 29 2 53 4 53 3 0 18 -44 35 -97z
m70 -292 c81 -160 156 -280 320 -509 774 -1083 1342 -1712 2556 -2832 408
-376 525 -475 644 -545 32 -19 51 -37 51 -49 0 -12 -5 -16 -16 -12 -9 3 -19 6
-24 6 -13 0 -164 114 -287 217 -227 189 -953 873 -1368 1288 -250 251 -313
311 -240 229 6 -6 12 -45 13 -85 l2 -74 183 -180 c100 -98 333 -328 517 -510
472 -466 913 -866 1090 -991 74 -51 80 -58 80 -90 l0 -35 -32 17 c-54 27 -120
84 -378 322 -353 325 -581 543 -1048 1000 l-412 404 0 -46 c0 -70 -17 -55 -26
22 -4 41 -14 76 -25 91 -11 13 -19 37 -19 53 0 24 3 28 19 23 15 -4 20 1 24
27 3 18 1 37 -4 43 -5 5 -9 -7 -9 -30 0 -30 -3 -36 -12 -27 -21 21 -28 13 -28
-32 0 -28 7 -52 20 -69 25 -32 30 -117 5 -97 -9 7 -18 11 -20 8 -3 -3 16 -25
42 -50 27 -25 93 -94 147 -153 140 -150 1019 -995 1397 -1342 207 -190 278
-247 372 -303 37 -22 57 -41 57 -53 0 -82 -302 173 -1145 969 -895 845 -1388
1402 -1985 2244 -69 96 -143 198 -165 225 -79 97 -220 351 -305 548 -27 65
-50 121 -50 125 0 4 38 -69 84 -163 93 -189 154 -286 383 -603 298 -412 580
-777 784 -1015 46 -53 100 -117 119 -141 19 -25 39 -45 44 -45 5 -1 0 9 -12
22 -16 17 -22 36 -22 71 0 40 2 46 14 37 11 -9 15 -8 20 5 10 27 7 48 -14 89
-11 22 -20 59 -20 84 l0 44 22 -19 c25 -21 -8 19 -133 162 -265 306 -672 839
-1056 1384 -164 232 -206 315 -253 498 -27 109 -24 121 9 37 15 -38 56 -126
90 -194z m71 84 c606 -915 1190 -1604 2115 -2494 632 -608 1008 -948 1227
-1109 l86 -64 4 -59 c1 -32 0 -59 -5 -59 -30 0 -136 86 -392 320 -1058 965
-1797 1728 -2309 2385 -138 178 -571 772 -680 935 -71 105 -143 239 -161 300
-10 35 -10 34 115 -155z m-102 -152 c50 -112 101 -203 112 -200 4 1 63 -77
132 -173 368 -521 688 -937 1054 -1370 8 -9 10 -21 5 -29 -25 -39 -822 998
-1105 1438 -47 74 -86 130 -86 124 0 -12 214 -338 305 -463 353 -488 868
-1140 901 -1140 7 0 9 11 7 28 -3 20 -2 23 6 12 5 -9 9 -40 9 -71 -1 -36 5
-64 16 -81 24 -37 26 -84 4 -80 -15 2 -18 -5 -18 -40 0 -56 -18 -38 -21 22 -1
25 -8 59 -14 76 -7 16 -75 106 -151 200 -307 374 -837 1084 -822 1100 3 2 51
-60 108 -138 187 -258 385 -520 507 -673 145 -181 340 -409 353 -413 6 -2 10
9 9 25 0 23 -2 24 -8 9 -6 -16 -23 0 -105 95 -120 140 -300 362 -428 529 -130
170 -601 819 -653 900 -95 147 -156 291 -191 455 -31 145 -29 162 5 45 15 -52
46 -136 69 -187z m11907 144 c51 -16 85 -35 85 -48 0 -5 -15 -2 -32 8 -49 25
-190 30 -264 8 -92 -26 -210 -86 -309 -156 -153 -108 -412 -379 -527 -550
l-16 -24 -11 43 -12 43 88 102 c183 211 359 370 508 459 168 100 379 150 490
115z m-1130 -7 c3 -6 -1 -7 -9 -4 -18 7 -21 14 -7 14 6 0 13 -4 16 -10z m36
-27 c13 -16 12 -17 -3 -4 -17 13 -22 21 -14 21 2 0 10 -8 17 -17z m1109 -14
c11 -6 6 -8 -16 -9 -58 0 -206 -50 -313 -105 -204 -105 -406 -285 -617 -550
-106 -132 -123 -145 -124 -89 0 45 230 327 369 452 145 130 257 209 371 260
56 26 87 35 195 56 27 5 117 -5 135 -15z m156 -64 c74 -37 268 -178 253 -183
-5 -2 -26 10 -46 27 -21 17 -44 31 -52 31 -8 0 6 -14 30 -32 34 -25 40 -33 26
-36 -10 -2 -24 1 -31 7 -8 6 -20 9 -28 6 -8 -3 -30 5 -49 18 -54 36 -59 39
-59 29 0 -6 25 -26 55 -46 38 -26 61 -35 77 -31 57 14 114 12 141 -3 15 -9 27
-20 27 -24 0 -4 -33 -8 -73 -8 -387 0 -916 -461 -1217 -1060 -172 -342 -212
-614 -125 -835 6 -16 1 -13 -24 10 -17 16 -37 47 -43 70 -14 51 -24 62 -31 36
-3 -12 -2 -21 3 -21 4 0 10 -7 14 -15 7 -19 -3 -19 -29 1 -14 11 -17 17 -8 22
7 4 15 26 18 47 4 22 19 110 35 195 41 222 62 377 55 400 -7 21 18 78 32 70
18 -11 14 44 -4 59 -19 15 -49 138 -38 150 3 2 19 -5 35 -17 35 -26 37 -26 37
-7 0 9 -22 30 -50 48 -27 17 -55 44 -63 59 -16 32 -9 36 18 11 11 -10 18 -12
18 -4 0 6 -11 17 -25 23 -20 9 -30 28 -49 87 -47 152 -50 138 71 291 138 175
351 387 468 466 106 72 224 133 315 162 89 28 95 30 176 31 63 1 80 -3 140
-34z m-12058 -200 c61 -122 197 -340 212 -340 4 0 12 -4 17 -9 5 -5 2 -6 -6
-1 -9 5 -12 3 -9 -6 3 -8 10 -13 16 -12 15 3 85 -94 77 -107 -17 -28 541 -777
894 -1200 39 -47 75 -98 80 -115 7 -26 6 -46 -2 -34 -1 2 -32 38 -68 79 -270
310 -592 735 -988 1303 -56 81 -105 147 -108 147 -7 0 12 -29 168 -250 389
-552 664 -911 952 -1244 27 -30 47 -60 45 -66 -4 -13 -155 161 -326 376 -354
447 -863 1159 -846 1185 3 5 -6 24 -19 41 -38 50 -135 270 -152 344 -21 90
-18 100 9 29 13 -33 37 -87 54 -120z m212 -45 c766 -1098 1425 -1831 2655
-2956 392 -359 434 -394 616 -526 31 -23 35 -30 31 -62 l-4 -37 -27 17 c-89
57 -265 210 -661 578 -875 813 -1364 1321 -1839 1911 -351 436 -788 1038 -906
1250 -44 79 -18 45 135 -175z m10603 20 c37 -27 67 -54 67 -60 0 -6 -13 -9
-29 -8 -16 1 -29 6 -28 11 1 5 -4 12 -12 15 -9 3 -11 0 -6 -9 7 -12 5 -12 -6
-1 -8 7 -14 18 -14 25 0 7 -8 11 -18 11 -9 -1 -14 3 -10 9 4 6 0 8 -8 5 -11
-4 -16 2 -17 23 -1 16 1 29 5 29 5 0 38 -23 76 -50z m1642 -55 c106 -43 176
-182 174 -350 0 -63 -7 -58 -28 20 -39 146 -184 230 -340 195 -216 -48 -394
-152 -586 -345 -291 -291 -528 -703 -581 -1005 -41 -239 20 -417 162 -470 30
-11 65 -21 77 -21 17 -1 16 -3 -8 -9 -152 -39 -299 46 -344 198 -26 85 -28
229 -5 340 73 361 362 834 692 1135 284 258 606 386 787 312z m-1673 -117
c-15 -15 -19 -11 -27 27 l-7 30 23 -22 c18 -18 21 -25 11 -35z m1645 -47 c17
-9 -32 -24 -119 -36 -40 -6 -48 -4 -57 13 -6 12 -11 23 -11 26 0 16 158 14
187 -3z m-186 -44 c102 -163 42 -472 -152 -795 -95 -156 -203 -294 -318 -404
-130 -125 -199 -177 -311 -233 -115 -59 -173 -75 -271 -75 -81 0 -89 5 -89 52
0 18 4 19 42 13 63 -11 113 -8 175 10 283 82 616 403 801 770 137 273 160 508
62 644 -21 28 -26 43 -18 45 7 3 20 7 28 9 8 3 17 6 20 6 3 1 17 -18 31 -42z
m264 1 c112 -97 127 -316 42 -578 -29 -88 -163 -356 -227 -455 -171 -261 -422
-501 -664 -633 -155 -85 -307 -106 -411 -57 -70 33 -83 55 -76 124 l6 54 63
13 c35 7 71 16 81 19 23 7 31 -17 31 -99 0 -33 3 -56 7 -52 4 4 6 42 5 84 l-2
77 91 45 c50 25 95 46 100 48 4 2 18 -29 30 -68 25 -82 36 -90 14 -9 -8 30
-17 63 -20 74 -4 15 4 27 32 46 21 15 91 74 155 132 l117 106 60 -81 c34 -45
61 -77 61 -72 -1 5 -27 45 -59 88 l-59 79 60 75 c70 88 142 194 187 274 l33
57 37 -23 c45 -29 158 -86 168 -86 4 0 -37 25 -91 55 -55 30 -101 57 -103 59
-2 2 14 46 36 98 22 52 53 138 68 191 l27 97 111 -6 c60 -3 116 -7 123 -10 6
-2 12 0 12 5 0 4 -53 12 -117 17 l-118 9 -6 115 c-3 63 -11 125 -17 137 -17
32 -15 43 11 44 12 0 51 8 87 18 36 10 68 19 72 20 4 0 23 -13 43 -31z m-353
-15 c103 -108 88 -347 -37 -609 -160 -338 -455 -647 -731 -764 -70 -31 -89
-34 -171 -35 -60 0 -96 4 -104 12 -19 19 4 163 46 290 145 436 538 924 882
1098 37 19 73 34 79 35 5 0 22 -12 36 -27z m-11687 -623 c456 -638 794 -1048
1242 -1510 616 -635 1689 -1632 1821 -1693 21 -10 32 -47 13 -47 -20 0 -133
84 -236 176 -781 697 -1700 1600 -2094 2059 -182 212 -423 521 -661 850 -68
94 -137 186 -154 205 -29 32 -116 188 -116 206 0 13 8 2 185 -246z m10530 15
l30 -25 -37 21 c-21 11 -38 23 -38 25 0 10 17 2 45 -21z m-10276 -425 c174
-232 389 -504 502 -632 375 -428 1046 -1096 1719 -1713 467 -428 464 -426 628
-525 42 -26 56 -60 24 -60 -55 0 -422 306 -832 694 -136 129 -769 744 -1019
990 -240 236 -641 690 -781 885 -58 80 -162 220 -230 311 -127 168 -320 448
-320 464 0 5 37 -42 81 -105 45 -63 147 -202 228 -309z m10291 239 c0 -6 -4
-7 -10 -4 -5 3 -10 11 -10 16 0 6 5 7 10 4 6 -3 10 -11 10 -16z m-51 -51 c-14
-25 -412 -440 -560 -583 -427 -412 -696 -604 -1174 -840 -484 -238 -747 -334
-1310 -474 -653 -162 -1110 -221 -1728 -221 -351 0 -500 7 -917 45 -615 57
-940 111 -1287 217 l-103 31 0 44 c0 23 2 43 5 43 3 0 51 -14 108 -30 298 -89
634 -148 1152 -205 492 -53 597 -59 1055 -59 384 0 459 2 640 22 833 91 1424
237 2090 517 460 193 745 356 1085 620 179 139 362 309 659 611 154 156 284
284 288 284 5 0 4 -10 -3 -22z m-29 -270 c-11 -68 -32 -185 -47 -260 l-25
-137 -227 -169 c-733 -547 -1400 -956 -2226 -1366 -777 -386 -1535 -687 -2370
-941 -743 -226 -1585 -416 -1911 -432 l-120 -6 -23 53 c-79 183 -129 699 -117
1199 3 151 9 298 12 326 l6 52 113 -33 c461 -134 1281 -238 1980 -251 609 -11
1131 38 1730 163 950 199 1854 610 2427 1103 42 36 74 68 72 70 -2 2 -29 -18
-60 -45 -367 -317 -822 -579 -1404 -809 -762 -301 -1720 -475 -2617 -475 -597
0 -1504 98 -1958 211 -217 54 -285 78 -285 98 0 18 4 18 77 -5 381 -117 941
-200 1718 -254 337 -24 866 -12 1220 25 539 58 1307 233 1743 397 284 106 730
319 955 456 351 213 536 367 997 833 265 268 356 353 358 339 2 -10 -6 -74
-18 -142z m230 -448 c0 -60 -12 -64 -34 -10 -21 54 -20 60 9 60 23 0 25 -3 25
-50z m-326 -14 c-4 -9 -34 -36 -68 -58 -33 -23 -113 -80 -176 -127 -296 -219
-793 -555 -1105 -746 -893 -548 -2012 -1068 -3025 -1405 -689 -230 -1642 -467
-2145 -534 -194 -26 -286 -31 -296 -15 -5 8 -9 16 -9 19 0 3 48 6 108 6 278 4
1172 204 1902 425 1710 519 3311 1324 4659 2343 85 64 156 115 158 113 2 -2 1
-12 -3 -21z m-9523 -261 c197 -226 349 -389 364 -390 6 -1 9 -6 8 -12 -3 -15
515 -548 805 -827 271 -261 740 -700 854 -798 42 -37 102 -83 132 -102 31 -20
81 -52 111 -71 58 -37 69 -55 34 -55 -23 0 -144 70 -218 126 -134 102 -905
836 -1411 1343 -398 399 -577 597 -761 841 -96 128 -141 195 -107 160 8 -8 93
-105 189 -215z m9514 195 c-7 -22 -138 -124 -416 -322 -1409 -1006 -2999
-1767 -4651 -2228 -632 -176 -1294 -317 -1620 -345 -70 -6 -77 -5 -87 14 -6
11 -11 22 -11 24 0 3 35 8 78 12 304 26 703 105 1302 255 877 220 1567 460
2413 839 1049 470 1830 931 2867 1689 68 50 126 89 128 87 2 -2 1 -13 -3 -25z
m-8863 -343 c248 -249 740 -717 1073 -1022 151 -138 295 -259 398 -334 80 -58
87 -66 87 -97 0 -19 -3 -34 -6 -34 -11 0 -136 92 -208 154 -266 227 -983 904
-1343 1270 -227 229 -293 302 -293 321 0 14 2 25 4 25 2 0 132 -128 288 -283z
m358 -432 c252 -244 894 -838 1012 -935 45 -38 119 -92 164 -122 51 -32 83
-60 84 -70 1 -55 -121 28 -400 272 -318 278 -519 469 -1017 964 -403 400 -493
494 -493 515 1 22 33 -6 218 -195 119 -121 314 -314 432 -429z m250 -376 c265
-254 768 -718 834 -771 27 -21 80 -57 117 -79 38 -22 69 -42 69 -44 0 -2 3
-11 6 -20 5 -13 2 -15 -22 -9 -38 9 -111 56 -204 131 -163 130 -831 760 -1375
1296 -170 168 -311 304 -313 303 -5 -5 684 -682 958 -942 523 -496 734 -684
853 -759 27 -17 47 -38 47 -47 0 -10 -2 -18 -5 -18 -12 0 -94 56 -145 99 -249
211 -1391 1301 -1626 1554 -86 92 -91 100 -93 144 l-1 47 342 -340 c189 -187
440 -432 558 -545z m115 -525 c333 -317 650 -609 712 -656 32 -24 86 -61 121
-82 56 -34 93 -78 78 -93 -8 -8 -84 37 -145 86 -194 155 -1472 1379 -1636
1566 -187 213 -146 178 251 -216 230 -228 509 -501 619 -605z m-513 606 c724
-709 1094 -1046 1321 -1205 43 -30 67 -53 67 -66 0 -10 -4 -19 -8 -19 -17 0
-166 109 -240 176 -285 256 -740 691 -1112 1062 -239 239 -429 432 -423 430 7
-1 185 -172 395 -378z m203 -355 c530 -514 992 -946 1089 -1019 30 -22 90 -59
133 -81 76 -38 93 -51 93 -69 0 -19 -64 6 -147 58 -128 79 -274 200 -495 409
-266 252 -314 297 -323 297 -4 0 26 -30 66 -67 41 -38 146 -137 234 -222 237
-228 409 -369 551 -450 55 -32 62 -40 105 -127 l45 -92 -59 46 c-89 70 -290
246 -451 397 -144 134 -510 508 -512 522 -1 5 -81 89 -178 188 -198 201 -418
433 -516 546 l-64 74 64 -60 c36 -33 200 -190 365 -350z"/>
<path d="M5510 8350 c-1173 -363 -2376 -809 -3510 -1304 -368 -161 -870 -390
-861 -394 4 -1 122 50 262 114 1375 630 2831 1184 4199 1599 140 43 257 79
259 81 18 15 -46 -2 -349 -96z"/>
<path d="M8120 8556 c0 -2 89 -53 198 -112 621 -339 1327 -763 1931 -1161 145
-96 265 -172 268 -170 3 4 -323 221 -562 374 -503 322 -1070 658 -1584 939
-242 133 -251 138 -251 130z"/>
<path d="M11070 6732 c30 -29 56 -52 59 -52 9 0 -54 62 -84 82 -16 12 -5 -2
25 -30z"/>
<path d="M10972 6752 c2 -4 26 -28 53 -52 l50 -44 -50 52 c-48 50 -60 61 -53
44z"/>
<path d="M10911 6733 c1 -11 88 -87 94 -82 2 3 -18 24 -45 47 -28 24 -50 39
-49 35z"/>
<path d="M11228 6567 c29 -29 52 -56 52 -60 0 -4 -9 -7 -21 -7 -12 0 -41 22
-70 52 -27 28 -49 47 -49 42 0 -6 16 -25 35 -44 19 -19 35 -37 35 -42 0 -13
-53 12 -95 44 l-40 31 30 -33 c17 -18 44 -38 60 -45 34 -14 135 -20 135 -8 0
13 -101 123 -113 123 -6 0 12 -24 41 -53z"/>
<path d="M7060 8581 c-880 -209 -1642 -432 -2495 -729 -330 -115 -970 -359
-1135 -432 -36 -16 -173 -75 -305 -131 -525 -222 -991 -439 -1465 -684 -247
-128 -610 -324 -610 -330 0 -46 362 -583 601 -891 269 -347 519 -629 886
-1000 434 -439 853 -786 1449 -1199 255 -177 265 -181 384 -146 986 291 1686
535 2440 849 1389 580 2619 1239 3925 2105 287 190 315 211 315 237 0 19 -166
183 -360 355 -791 702 -1732 1337 -2625 1771 -335 162 -624 287 -675 290 -30
2 -141 -20 -330 -65z m587 -52 c1148 -505 2254 -1236 3211 -2122 95 -88 171
-164 170 -168 -10 -28 -760 -514 -1280 -830 l-227 -138 -218 236 c-120 130
-242 261 -272 292 -93 97 -21 11 105 -124 247 -265 364 -399 361 -409 -10 -30
-41 -6 -142 106 -257 287 -908 958 -929 958 -5 0 88 -98 208 -217 241 -240
490 -500 695 -726 104 -116 131 -151 120 -158 -8 -5 -16 -9 -19 -9 -3 0 -84
87 -180 192 -441 486 -1165 1189 -1630 1583 -58 48 -115 97 -127 108 -13 11
-23 18 -23 15 0 -3 62 -59 138 -124 329 -283 605 -537 946 -874 298 -294 856
-883 856 -904 0 -7 -61 -46 -72 -46 -4 0 -131 135 -284 300 -152 165 -279 300
-281 300 -7 0 45 -58 305 -339 133 -145 242 -266 242 -270 0 -16 -671 -372
-1160 -615 -535 -266 -892 -429 -1405 -641 -294 -121 -845 -330 -895 -340
l-35 -6 -74 108 c-133 194 -334 473 -339 469 -2 -2 34 -55 79 -118 88 -121
329 -467 329 -472 0 -2 -9 -6 -20 -9 -16 -4 -39 23 -132 156 -284 410 -734
1015 -745 1003 -2 -2 36 -55 84 -117 261 -333 753 -1019 753 -1048 0 -6 -8
-11 -17 -11 -11 0 -37 28 -63 67 -297 441 -729 1013 -1108 1468 -206 247 -465
544 -471 539 -2 -2 41 -54 96 -116 510 -579 1002 -1209 1436 -1839 47 -69 84
-129 80 -133 -19 -19 -45 4 -108 96 -250 366 -840 1156 -853 1143 -2 -2 52
-75 120 -162 293 -372 779 -1046 782 -1083 1 -8 -6 -16 -15 -18 -10 -2 -35 27
-74 85 -94 143 -359 513 -363 509 -2 -3 56 -89 130 -193 191 -268 282 -402
277 -407 -7 -7 -370 -132 -549 -189 -315 -100 -754 -227 -787 -227 -22 0 -57
17 -115 56 -690 469 -1091 791 -1567 1259 -442 434 -778 826 -1156 1349 -157
218 -365 541 -353 551 40 33 751 402 1054 548 478 229 1270 579 1308 576 6 0
46 -40 89 -87 99 -110 246 -265 221 -233 -10 14 -81 92 -156 175 -76 83 -138
154 -138 157 0 4 9 9 20 12 16 4 55 -34 197 -191 246 -274 306 -343 402 -457
95 -113 119 -139 106 -115 -21 38 -341 405 -572 657 -57 61 -103 114 -103 117
0 3 11 6 23 6 47 0 663 -704 1066 -1217 79 -101 145 -183 148 -183 7 0 -16 30
-181 240 -249 316 -567 690 -853 1002 -147 160 -153 167 -132 179 19 10 25 9
39 -8 9 -11 104 -119 212 -239 205 -229 375 -425 449 -518 24 -30 48 -55 52
-56 15 0 -478 572 -692 803 -22 24 -23 29 -11 37 8 5 17 10 20 10 3 0 68 -70
145 -155 76 -85 141 -155 143 -155 8 0 -30 45 -143 169 -66 73 -121 136 -123
140 -5 15 668 269 1112 420 l239 81 61 -58 c77 -73 303 -266 319 -271 6 -2
-72 68 -173 155 -101 87 -185 164 -187 170 -2 6 6 14 17 17 16 4 37 -9 83 -52
34 -31 166 -149 292 -261 127 -112 266 -238 310 -280 44 -41 91 -84 105 -94
44 -33 -120 122 -315 297 -104 93 -245 219 -312 280 -68 60 -120 113 -117 118
16 27 59 -4 247 -173 434 -393 891 -825 1051 -995 38 -40 73 -73 80 -73 31 0
-680 678 -1201 1144 -67 60 -120 113 -117 118 3 4 13 8 22 8 16 0 434 -370
706 -624 66 -61 117 -106 115 -101 -7 17 -162 161 -482 448 -169 152 -308 280
-310 284 -1 5 9 10 22 11 18 3 39 -11 85 -56 81 -78 224 -202 234 -202 8 1 7
1 -172 158 -65 57 -115 106 -113 108 8 9 492 155 788 239 478 135 1243 323
1321 324 25 1 105 -29 265 -100z"/>
<path d="M6964 8331 c-45 -21 -84 -63 -84 -93 0 -65 63 -108 157 -108 109 0
193 46 193 106 0 30 -46 83 -87 100 -46 20 -130 17 -179 -5z m186 -19 c45 -25
57 -44 45 -78 -15 -40 -68 -64 -143 -64 -75 0 -128 20 -144 55 -10 22 -8 29
13 51 13 15 38 33 54 40 44 20 134 17 175 -4z"/>
<path d="M7100 8218 c-14 -5 -52 -7 -85 -4 -47 4 -55 3 -35 -5 31 -13 136 -7
152 9 14 14 2 14 -32 0z"/>
<path d="M7251 8243 c-2 -95 -78 -152 -206 -153 -72 0 -122 19 -152 59 -7 9
-13 11 -13 4 0 -21 58 -61 109 -73 85 -20 213 22 253 82 22 34 30 81 19 109
-8 20 -10 16 -10 -28z"/>
<path d="M6085 8238 c-43 -15 -95 -67 -95 -96 0 -58 49 -92 132 -92 144 1 219
117 116 180 -36 22 -103 25 -153 8z m151 -31 c22 -19 26 -29 20 -50 -9 -37
-71 -67 -136 -67 -57 0 -84 11 -100 40 -38 71 146 137 216 77z"/>
<path d="M6180 8140 c-8 -5 -40 -10 -70 -11 -52 -1 -53 -1 -22 -10 34 -10 106
3 117 21 8 13 -6 13 -25 0z"/>
<path d="M6326 8199 c15 -98 -81 -179 -213 -179 -61 0 -111 18 -141 51 -12 12
-24 20 -27 17 -13 -13 66 -67 114 -77 155 -33 319 87 272 199 -10 22 -10 21
-5 -11z"/>
<path d="M5617 8118 c-21 -6 -53 -25 -72 -43 -29 -27 -35 -39 -35 -74 0 -36 4
-44 33 -62 27 -17 42 -19 104 -14 77 6 103 -6 51 -24 -69 -24 -162 -6 -209 42
-16 16 -29 24 -29 20 0 -16 43 -51 82 -68 47 -19 118 -19 164 0 33 14 38 13
63 -4 14 -11 37 -30 49 -44 19 -21 22 -29 13 -45 -42 -79 47 -137 170 -111 95
20 146 97 104 156 -22 31 -75 46 -137 38 -52 -6 -54 -5 -97 35 l-43 40 17 36
c10 22 14 46 10 64 -10 47 -20 42 -17 -8 2 -29 -2 -54 -11 -66 -21 -28 -39
-11 -31 30 8 43 -15 80 -61 100 -39 16 -64 16 -118 2z m123 -23 c60 -31 45
-79 -35 -116 -107 -50 -224 11 -152 79 51 48 133 65 187 37z m85 -188 c42 -39
55 -55 44 -59 -20 -8 -144 93 -127 104 20 12 21 11 83 -45z m255 -62 c28 -25
25 -49 -10 -79 -54 -45 -165 -59 -205 -26 -25 21 -18 66 13 88 60 44 164 52
202 17z"/>
<path d="M5706 8018 c-11 -6 -45 -14 -75 -18 l-56 -7 48 -2 c41 -1 107 20 107
34 0 7 -2 6 -24 -7z"/>
<path d="M6000 7773 c-19 -8 -49 -13 -67 -11 -18 2 -33 0 -33 -4 0 -13 78 -9
115 6 19 8 35 17 35 20 0 9 -11 6 -50 -11z"/>
<path d="M7242 8090 c-109 -25 -89 -140 25 -140 76 0 129 45 110 94 -14 35
-81 58 -135 46z m101 -40 c18 -17 18 -18 -4 -39 -39 -36 -149 -23 -149 18 0
12 33 38 55 44 31 8 78 -3 98 -23z"/>
<path d="M7275 8013 l-30 -14 30 6 c31 7 41 12 34 19 -2 2 -17 -3 -34 -11z"/>
<path d="M6429 8041 c-81 -16 -138 -72 -125 -124 25 -103 227 -100 285 5 40
70 -55 140 -160 119z m82 -21 c20 -6 44 -19 53 -29 37 -41 -27 -97 -123 -108
-57 -6 -98 9 -113 42 -10 23 -9 29 14 51 24 24 87 53 118 54 8 0 31 -5 51 -10z"/>
<path d="M6470 7928 c-19 -5 -47 -8 -62 -6 -15 3 -28 1 -28 -4 0 -13 82 -8
115 7 35 16 24 17 -25 3z"/>
<path d="M6631 7972 c-1 -64 -19 -94 -77 -128 -83 -49 -198 -43 -266 14 -27
23 -30 24 -20 5 18 -33 91 -63 151 -63 73 0 124 17 170 57 48 40 66 88 52 135
-9 32 -9 31 -10 -20z"/>
<path d="M7398 7994 c-27 -57 -136 -87 -198 -54 -13 7 -20 7 -20 1 0 -16 80
-33 119 -26 49 9 95 39 110 71 16 36 6 43 -11 8z"/>
<path d="M8576 7937 c-10 -7 -16 -22 -14 -33 3 -15 12 -19 47 -19 30 0 47 5
54 17 24 37 -45 65 -87 35z m72 -19 c-5 -15 -68 -24 -68 -10 0 15 13 22 43 22
18 0 27 -4 25 -12z"/>
<path d="M8416 7917 c-10 -7 -16 -22 -14 -33 5 -27 86 -28 102 -1 22 36 -49
63 -88 34z m69 -22 c0 -5 -15 -11 -32 -13 -32 -3 -45 11 -20 22 19 8 52 2 52
-9z"/>
<path d="M8273 7874 c-22 -10 -14 -44 12 -54 37 -14 77 4 73 33 -2 17 -10 22
-38 24 -19 1 -41 0 -47 -3z m67 -24 c0 -5 -13 -10 -30 -10 -16 0 -30 5 -30 10
0 6 14 10 30 10 17 0 30 -4 30 -10z"/>
<path d="M8728 7859 c-26 -15 -22 -48 7 -59 29 -11 73 2 81 25 14 36 -46 59
-88 34z m67 -18 c8 -14 -30 -32 -49 -25 -30 11 -16 34 20 34 13 0 25 -4 29 -9z"/>
<path d="M6144 7811 c1 -61 -23 -96 -88 -130 -88 -45 -190 -39 -259 17 l-32
26 25 -28 c81 -92 272 -68 347 43 23 34 30 85 15 109 -5 7 -8 -8 -8 -37z"/>
<path d="M8106 7835 c-8 -9 -13 -22 -10 -30 8 -21 83 -20 90 0 15 37 -49 61
-80 30z m59 -15 c4 -6 -5 -10 -20 -10 -15 0 -24 4 -20 10 3 6 12 10 20 10 8 0
17 -4 20 -10z"/>
<path d="M8563 7838 c-30 -15 -38 -40 -17 -55 26 -19 68 -16 89 7 16 18 17 22
4 34 -21 20 -51 26 -76 14z m46 -17 c19 -12 5 -31 -24 -31 -31 0 -40 16 -18
29 22 13 25 13 42 2z"/>
<path d="M7952 7798 c-33 -33 1 -67 46 -45 38 18 36 51 -3 55 -17 2 -36 -3
-43 -10z m48 -23 c-13 -16 -40 -20 -40 -7 0 14 12 22 33 22 16 0 17 -3 7 -15z"/>
<path d="M8419 7791 c-20 -16 -21 -21 -10 -35 17 -20 65 -21 85 -1 19 19 11
41 -17 49 -31 8 -32 8 -58 -13z m55 -7 c24 -9 8 -24 -26 -24 -26 0 -29 2 -18
15 14 17 21 18 44 9z"/>
<path d="M8851 7787 c-31 -16 -36 -31 -16 -51 23 -22 61 -20 86 5 18 18 19 23
8 34 -22 21 -52 25 -78 12z m59 -26 c0 -12 -37 -24 -50 -16 -20 12 -10 25 20
25 17 0 30 -4 30 -9z"/>
<path d="M8262 7758 c-33 -33 6 -65 56 -47 38 14 20 59 -23 59 -12 0 -26 -5
-33 -12z m53 -18 c4 -6 -5 -10 -20 -10 -15 0 -24 4 -20 10 3 6 12 10 20 10 8
0 17 -4 20 -10z"/>
<path d="M8698 7749 c-26 -15 -22 -48 7 -59 29 -11 73 2 81 25 14 36 -46 59
-88 34z m67 -18 c8 -14 -30 -32 -49 -25 -30 11 -16 34 20 34 13 0 25 -4 29 -9z"/>
<path d="M4955 7721 c-49 -22 -95 -74 -95 -107 0 -50 59 -84 143 -84 88 1 160
45 173 106 16 81 -118 132 -221 85z m180 -31 c31 -29 31 -41 2 -68 -70 -66
-227 -70 -243 -6 -8 33 10 59 58 83 58 30 146 25 183 -9z"/>
<path d="M5070 7625 c-14 -8 -50 -15 -80 -16 -55 -2 -55 -3 -10 -7 49 -4 120
13 120 28 0 12 0 12 -30 -5z"/>
<path d="M8109 7711 c-20 -16 -21 -21 -10 -35 18 -22 54 -20 76 4 15 16 15 22
5 35 -17 20 -43 19 -71 -4z m61 -10 c0 -11 -39 -25 -47 -18 -3 3 -2 10 2 16 8
13 45 15 45 2z"/>
<path d="M8572 7708 c-32 -32 17 -71 63 -50 42 19 25 62 -25 62 -14 0 -31 -5
-38 -12z m68 -17 c0 -13 -37 -24 -50 -16 -6 4 -8 11 -5 16 8 12 55 12 55 0z"/>
<path d="M8949 7704 c-21 -25 1 -49 46 -49 41 0 63 20 52 49 -9 22 -80 22 -98
0z m78 -18 c-5 -15 -47 -20 -60 -7 -7 7 -3 13 14 19 28 11 52 5 46 -12z"/>
<path d="M5205 7652 c-1 -62 -24 -95 -92 -129 -42 -20 -71 -27 -117 -27 -65 0
-95 11 -138 52 -16 14 -28 21 -28 14 0 -20 65 -61 116 -73 96 -22 220 26 259
100 16 31 21 96 8 104 -5 3 -8 -16 -8 -41z"/>
<path d="M4440 7681 c-73 -22 -130 -73 -130 -115 0 -30 27 -65 59 -77 14 -6
59 -11 99 -11 67 1 95 -10 55 -21 -88 -24 -167 -11 -214 35 -16 16 -29 25 -29
20 0 -18 59 -61 98 -72 50 -13 80 -13 134 4 42 12 48 12 77 -6 33 -21 37 -28
21 -44 -15 -15 -15 -80 -1 -98 34 -40 166 -51 229 -19 49 26 80 81 67 119 -18
50 -58 69 -138 67 -65 -1 -75 1 -98 24 -25 23 -26 27 -13 51 16 31 19 98 4
107 -6 4 -7 -5 -4 -24 7 -35 -13 -104 -29 -98 -12 4 -12 12 -1 60 15 66 -97
125 -186 98z m134 -36 c52 -34 39 -76 -32 -108 -62 -28 -152 -29 -181 -3 -84
76 112 177 213 111z m60 -184 c24 -25 26 -31 12 -31 -26 0 -99 62 -84 71 15
10 36 -2 72 -40z m218 -32 c67 -36 17 -117 -83 -134 -46 -8 -114 10 -140 36
-39 39 13 89 116 113 25 5 84 -3 107 -15z"/>
<path d="M4510 7569 c-14 -6 -47 -10 -75 -11 -42 0 -46 -2 -26 -9 27 -11 127
6 136 22 8 11 -3 11 -35 -2z"/>
<path d="M4785 7344 c-18 -8 -47 -12 -75 -9 -38 4 -41 3 -20 -6 30 -13 100 -4
126 16 24 18 8 18 -31 -1z"/>
<path d="M8408 7666 c-25 -18 -22 -34 7 -48 49 -22 102 27 56 52 -26 13 -42
12 -63 -4z m57 -15 c7 -12 -31 -25 -46 -15 -8 4 -7 9 2 15 18 11 36 11 44 0z"/>
<path d="M8826 7644 c-9 -8 -16 -17 -16 -19 0 -2 7 -11 16 -19 35 -36 125 1
94 39 -16 20 -74 19 -94 -1z m72 -16 c-5 -15 -33 -22 -54 -14 -24 9 -6 26 27
26 20 0 29 -4 27 -12z"/>
<path d="M8272 7624 c-26 -18 -29 -39 -6 -48 26 -10 41 -7 65 13 20 16 21 21
10 35 -17 20 -40 20 -69 0z m48 -14 c0 -12 -28 -25 -36 -17 -9 9 6 27 22 27 8
0 14 -5 14 -10z"/>
<path d="M9121 7631 c-13 -4 -29 -14 -35 -24 -9 -15 -7 -21 8 -33 25 -18 70
-18 86 1 27 33 -9 68 -59 56z m47 -33 c-5 -15 -33 -22 -54 -14 -24 9 -6 26 27
26 20 0 29 -4 27 -12z"/>
<path d="M8708 7609 c-27 -15 -22 -48 8 -55 30 -8 74 10 74 29 0 33 -46 47
-82 26z m55 -24 c-3 -13 -53 -20 -53 -7 0 15 13 23 35 20 11 -2 19 -7 18 -13z"/>
<path d="M8550 7575 c-20 -24 -4 -45 33 -45 42 0 66 23 47 45 -16 19 -64 19
-80 0z m60 -15 c0 -5 -9 -10 -20 -10 -11 0 -20 5 -20 10 0 6 9 10 20 10 11 0
20 -4 20 -10z"/>
<path d="M8956 7577 c-10 -7 -16 -22 -14 -33 3 -15 12 -19 47 -19 30 0 47 5
54 17 24 37 -45 65 -87 35z m67 -22 c1 -5 -13 -11 -30 -13 -31 -3 -42 6 -26
22 10 10 53 3 56 -9z"/>
<path d="M9230 7537 c-34 -17 -32 -49 2 -61 56 -20 108 37 59 64 -25 13 -30
13 -61 -3z m55 -27 c0 -17 -28 -25 -53 -15 -15 6 -15 8 3 21 24 18 50 14 50
-6z"/>
<path d="M8414 7526 c-15 -12 -17 -18 -8 -33 16 -25 46 -27 74 -5 21 17 22 22
11 36 -17 20 -51 21 -77 2z m56 -15 c0 -12 -29 -23 -42 -15 -6 4 -5 10 3 15
18 11 39 11 39 0z"/>
<path d="M8853 7524 c-20 -9 -15 -42 7 -54 27 -15 75 8 75 35 0 16 -7 20 -35
22 -19 1 -41 0 -47 -3z m67 -23 c0 -11 -30 -19 -47 -14 -24 8 -13 23 17 23 17
0 30 -4 30 -9z"/>
<path d="M9084 7486 c-15 -12 -17 -18 -8 -33 15 -24 82 -25 97 -1 25 38 -46
65 -89 34z m74 -18 c-5 -15 -33 -22 -54 -14 -24 9 -6 26 27 26 20 0 29 -4 27
-12z"/>
<path d="M8692 7478 c-19 -19 -14 -37 12 -49 32 -15 68 4 64 34 -2 16 -11 23
-33 25 -17 2 -36 -3 -43 -10z m58 -17 c0 -12 -29 -23 -41 -15 -5 3 -7 10 -4
15 8 12 45 12 45 0z"/>
<path d="M9347 7442 c-23 -26 -5 -52 38 -52 31 0 65 20 65 39 0 32 -77 42
-103 13z m76 -17 c1 -5 -13 -11 -30 -13 -31 -3 -42 6 -26 22 10 10 53 3 56 -9z"/>
<path d="M8978 7439 c-24 -13 -23 -36 1 -49 28 -14 46 -13 71 8 21 17 21 19 5
35 -18 19 -51 22 -77 6z m62 -19 c0 -6 -7 -13 -15 -16 -20 -8 -48 3 -40 16 8
13 55 13 55 0z"/>
<path d="M4937 7387 c6 -55 -25 -104 -87 -134 -93 -47 -189 -39 -258 20 -33
28 -35 29 -21 7 8 -14 35 -35 59 -47 95 -49 244 -12 301 74 19 29 26 107 10
117 -5 3 -6 -13 -4 -37z"/>
<path d="M4158 7411 c-109 -35 -153 -125 -86 -174 58 -43 202 -31 251 22 39
42 40 78 3 118 -27 29 -39 35 -86 38 -30 3 -67 0 -82 -4z m146 -35 c73 -48
-13 -126 -138 -126 -64 0 -96 20 -96 60 0 31 36 64 88 81 39 12 117 5 146 -15z"/>
<path d="M4240 7300 c-8 -5 -40 -10 -70 -11 -44 -1 -50 -2 -29 -9 30 -9 94 0
124 18 14 8 16 11 5 12 -8 0 -22 -5 -30 -10z"/>
<path d="M8566 7404 c-19 -19 -20 -26 -4 -42 17 -17 42 -15 69 7 20 16 21 21
10 35 -17 20 -55 21 -75 0z m54 -13 c0 -12 -29 -23 -42 -15 -6 4 -5 10 3 15
18 11 39 11 39 0z"/>
<path d="M9216 7391 c-24 -27 -11 -51 29 -51 48 0 65 9 65 35 0 38 -64 49 -94
16z m74 -16 c0 -10 -11 -15 -35 -15 -54 0 -43 27 13 29 13 1 22 -5 22 -14z"/>
<path d="M4378 7331 c3 -42 0 -53 -27 -84 -41 -46 -100 -69 -178 -68 -66 0
-108 16 -143 53 -11 12 -20 17 -20 12 0 -20 49 -56 96 -70 63 -19 133 -10 197
24 71 38 106 98 91 157 -10 42 -19 28 -16 -24z"/>
<path d="M8840 7365 c-20 -24 -4 -45 33 -45 42 0 60 16 46 42 -12 22 -61 24
-79 3z m60 -15 c0 -5 -12 -10 -26 -10 -14 0 -23 4 -19 10 3 6 15 10 26 10 10
0 19 -4 19 -10z"/>
<path d="M9472 7348 c-20 -20 -14 -47 13 -54 55 -14 102 19 75 51 -15 18 -71
20 -88 3z m71 -23 c1 -5 -13 -11 -30 -13 -31 -3 -42 6 -26 22 10 10 53 3 56
-9z"/>
<path d="M9122 7338 c-35 -35 13 -73 64 -49 41 19 24 61 -26 61 -14 0 -31 -5
-38 -12z m63 -17 c7 -12 -31 -25 -45 -16 -6 4 -8 11 -5 16 8 12 42 12 50 0z"/>
<path d="M8707 7312 c-21 -23 -7 -44 28 -44 32 0 60 24 52 46 -9 22 -60 20
-80 -2z m58 -12 c-3 -5 -15 -10 -26 -10 -11 0 -17 5 -14 10 3 6 15 10 26 10
11 0 17 -4 14 -10z"/>
<path d="M9362 7304 c-29 -20 -28 -42 3 -56 46 -21 103 23 75 57 -16 19 -50
19 -78 -1z m63 -13 c8 -14 -30 -32 -49 -25 -9 3 -16 10 -16 14 0 18 55 26 65
11z"/>
<path d="M8993 7280 c-32 -13 -30 -48 2 -56 49 -12 86 26 50 52 -21 16 -22 16
-52 4z m42 -19 c8 -14 -13 -24 -33 -16 -14 5 -14 7 -2 15 19 12 27 12 35 1z"/>
<path d="M9599 7262 c-27 -22 -21 -49 13 -57 33 -8 78 11 78 33 0 42 -51 56
-91 24z m68 -18 c5 -15 -25 -26 -50 -18 -20 6 -20 7 -2 21 22 15 46 14 52 -3z"/>
<path d="M9244 7246 c-28 -22 -7 -51 36 -51 40 0 61 25 41 49 -17 20 -51 21
-77 2z m61 -16 c8 -13 -20 -24 -42 -16 -15 6 -15 8 -3 16 20 13 37 12 45 0z"/>
<path d="M8848 7213 c-22 -26 -11 -43 27 -43 36 0 60 21 51 45 -8 21 -59 19
-78 -2z m57 -13 c-3 -5 -15 -10 -26 -10 -11 0 -17 5 -14 10 3 6 15 10 26 10
11 0 17 -4 14 -10z"/>
<path d="M9476 7204 c-19 -19 -20 -26 -4 -42 26 -26 108 -5 108 27 0 31 -77
42 -104 15z m72 -16 c-5 -15 -58 -24 -58 -10 0 15 12 22 38 22 14 0 22 -5 20
-12z"/>
<path d="M3188 7190 c-77 -41 -101 -110 -53 -154 32 -29 80 -39 150 -31 61 8
82 -7 33 -24 -69 -24 -179 -3 -217 42 -7 10 -18 17 -24 17 -19 0 25 -39 67
-60 51 -24 131 -26 182 -5 34 14 37 14 70 -11 40 -31 40 -33 14 -67 -45 -57
-3 -129 82 -142 90 -14 199 38 210 99 12 62 -36 105 -123 109 -36 2 -54 10
-89 39 -40 35 -42 40 -32 63 15 32 15 85 1 105 -7 11 -8 4 -3 -23 6 -37 -10
-97 -27 -97 -16 0 -19 19 -7 44 14 33 -4 71 -47 98 -41 25 -137 24 -187 -2z
m155 -3 c103 -44 51 -130 -87 -144 -95 -10 -152 42 -104 94 51 55 130 75 191
50z m100 -196 c35 -33 39 -41 25 -46 -12 -5 -31 5 -60 29 -23 20 -45 36 -50
36 -4 0 -8 5 -8 10 0 25 53 8 93 -29z m215 -67 c49 -32 9 -101 -72 -124 -56
-15 -119 -5 -154 25 -26 23 -26 25 -12 52 35 63 170 89 238 47z"/>
<path d="M3300 7093 c-21 -9 -50 -13 -72 -10 -21 3 -38 1 -38 -4 0 -14 87 -10
125 5 19 8 35 17 35 20 0 9 -11 6 -50 -11z"/>
<path d="M3595 6850 c-11 -5 -45 -9 -75 -10 -44 0 -51 -3 -37 -11 23 -13 109
-3 134 17 20 15 9 17 -22 4z"/>
<path d="M9123 7183 c-7 -2 -13 -16 -13 -29 0 -21 4 -24 39 -24 31 0 41 4 46
20 3 11 3 24 0 30 -6 10 -50 12 -72 3z m57 -23 c0 -5 -11 -10 -25 -10 -14 0
-25 5 -25 10 0 6 11 10 25 10 14 0 25 -4 25 -10z"/>
<path d="M9386 7137 c-26 -19 -17 -51 16 -55 55 -6 90 35 49 58 -26 13 -43 13
-65 -3z m57 -22 c1 -5 -10 -11 -25 -13 -16 -2 -28 1 -28 7 0 20 49 26 53 6z"/>
<path d="M9024 7129 c-27 -10 -36 -23 -28 -43 13 -33 103 -7 91 27 -5 16 -40
25 -63 16z m31 -29 c-3 -5 -13 -10 -21 -10 -8 0 -14 5 -14 10 0 6 9 10 21 10
11 0 17 -4 14 -10z"/>
<path d="M9266 7074 c-21 -21 -20 -31 5 -44 26 -14 65 -6 73 16 15 38 -47 60
-78 28z m54 -13 c0 -15 -19 -23 -38 -16 -14 5 -14 7 -2 15 19 12 40 13 40 1z"/>
<path d="M9148 7019 c-10 -5 -18 -19 -18 -29 0 -29 66 -31 87 -3 25 33 -27 57
-69 32z m52 -18 c0 -11 -39 -21 -45 -11 -2 4 -2 10 2 14 10 9 43 7 43 -3z"/>
<path d="M2757 6960 c-77 -23 -129 -96 -108 -149 16 -37 48 -51 120 -51 113 0
213 79 183 145 -25 55 -113 79 -195 55z m149 -33 c53 -46 7 -104 -101 -128
-41 -9 -57 -8 -87 4 -51 22 -63 48 -37 81 51 65 172 88 225 43z"/>
<path d="M2845 6855 c-16 -8 -52 -14 -80 -15 -39 0 -46 -3 -32 -11 22 -13 120
6 137 27 15 17 14 17 -25 -1z"/>
<path d="M2968 6880 c3 -41 0 -52 -28 -83 -77 -88 -267 -97 -324 -15 -9 12
-18 19 -21 17 -8 -8 32 -47 68 -66 21 -12 55 -18 102 -18 125 0 215 67 215
161 0 24 -3 45 -7 47 -5 3 -6 -16 -5 -43z"/>
<path d="M3731 6885 c-1 -65 -27 -106 -85 -134 -91 -45 -193 -38 -258 17 -27
23 -30 24 -20 5 7 -12 32 -31 58 -43 87 -42 226 -13 287 60 31 36 42 85 28
120 -8 22 -10 19 -10 -25z"/>
<path d="M3020 6705 c-19 -9 -45 -26 -58 -37 -25 -24 -45 -87 -36 -112 11 -28
60 -46 121 -46 140 1 234 104 160 178 -22 22 -37 27 -89 29 -42 2 -75 -2 -98
-12z m155 -17 c56 -25 36 -94 -36 -122 -51 -21 -138 -21 -167 0 -43 30 -17 90
52 120 39 17 117 18 151 2z"/>
<path d="M3120 6605 c-14 -8 -47 -15 -75 -15 -37 0 -46 -3 -33 -10 20 -12 107
4 134 25 25 19 6 18 -26 0z"/>
<path d="M3248 6640 c7 -75 -42 -128 -144 -155 -78 -20 -154 -6 -197 37 -33
33 -48 33 -17 0 35 -37 82 -55 145 -56 79 -1 144 25 189 75 30 32 36 47 36 83
0 25 -3 47 -8 50 -4 2 -6 -13 -4 -34z"/>
<path d="M8480 6123 c244 -239 532 -540 765 -798 131 -146 128 -143 124 -128
-15 44 -779 840 -1024 1066 -66 60 -5 -2 135 -140z"/>
<path d="M2669 5652 c-31 -26 -20 -52 24 -52 36 0 57 15 57 41 0 32 -47 38
-81 11z m61 -12 c0 -13 -32 -28 -48 -23 -10 4 -10 8 -1 19 13 16 49 19 49 4z"/>
<path d="M7915 5585 c-56 -17 -113 -44 -95 -44 8 0 35 8 59 19 58 27 99 25
144 -5 20 -14 37 -22 37 -18 0 10 -56 45 -85 54 -11 3 -38 1 -60 -6z"/>
<path d="M2502 5574 c-32 -22 -26 -58 11 -62 32 -4 77 21 77 43 0 15 -30 35
-52 35 -8 0 -24 -7 -36 -16z m64 -15 c8 -14 -14 -29 -43 -29 -25 0 -29 10 -11
28 15 15 45 16 54 1z"/>
<path d="M2782 5552 c-12 -2 -27 -13 -33 -24 -9 -18 -8 -24 7 -35 10 -7 23
-13 30 -13 18 0 65 41 59 51 -10 15 -39 25 -63 21z m38 -31 c0 -11 -40 -22
-52 -15 -5 3 -6 10 -3 15 8 12 55 12 55 0z"/>
<path d="M7680 5493 c-19 -8 -46 -19 -59 -24 -13 -5 -22 -12 -19 -14 4 -5 114
38 125 49 10 10 -9 6 -47 -11z"/>
<path d="M2342 5474 c-7 -3 -17 -15 -23 -26 -15 -27 5 -48 45 -48 43 0 69 20
64 51 -2 20 -9 24 -38 26 -19 1 -41 0 -48 -3z m66 -31 c-2 -13 -14 -19 -41
-21 -39 -3 -49 10 -19 27 29 17 64 14 60 -6z"/>
<path d="M2612 5454 c-35 -24 -26 -58 16 -62 56 -6 95 45 53 68 -27 14 -43 13
-69 -6z m61 -11 c12 -11 -14 -33 -39 -33 -28 0 -31 15 -6 29 20 12 36 14 45 4z"/>
<path d="M8153 5443 c39 -42 30 -63 -43 -102 -67 -36 -80 -50 -22 -24 63 29
102 62 102 88 0 15 -11 31 -32 46 l-33 22 28 -30z"/>
<path d="M2895 5404 c-23 -23 -15 -48 17 -52 35 -4 68 14 68 37 0 33 -57 42
-85 15z m63 -16 c-5 -15 -58 -24 -58 -9 0 11 17 19 43 20 11 1 17 -4 15 -11z"/>
<path d="M7470 5404 c-19 -9 -46 -20 -59 -25 -13 -5 -22 -12 -19 -14 6 -6 118
42 118 50 0 7 1 7 -40 -11z"/>
<path d="M2168 5373 c-26 -31 -29 -41 -12 -57 43 -44 152 13 114 59 -17 21
-83 19 -102 -2z m89 -19 c4 -12 -39 -34 -67 -34 -23 0 -26 20 -8 38 15 15 70
12 75 -4z"/>
<path d="M2452 5344 c-36 -25 -26 -58 19 -62 47 -4 85 25 75 56 -9 27 -60 30
-94 6z m78 -12 c0 -17 -25 -32 -52 -32 -30 0 -35 9 -16 28 13 13 68 17 68 4z"/>
<path d="M2750 5336 c-27 -9 -36 -17 -38 -38 -3 -26 -1 -28 36 -28 43 0 77 26
66 53 -8 23 -25 26 -64 13z m39 -32 c-13 -16 -59 -19 -59 -4 0 13 41 29 58 23
9 -4 10 -9 1 -19z"/>
<path d="M7230 5295 c-59 -32 -46 -32 22 0 29 14 46 25 38 24 -8 0 -35 -11
-60 -24z"/>
<path d="M2015 5288 c-21 -12 -44 -38 -45 -50 -1 -18 35 -38 71 -38 43 0 79
27 79 60 0 35 -63 52 -105 28z m82 -24 c8 -23 -23 -44 -63 -44 -42 0 -50 14
-24 40 25 25 78 27 87 4z"/>
<path d="M3000 5270 c-27 -27 -16 -50 25 -50 32 0 65 21 65 40 0 12 -34 30
-54 30 -9 0 -25 -9 -36 -20z m60 -15 c0 -9 -9 -15 -25 -15 -26 0 -34 15 -12
23 23 10 37 7 37 -8z"/>
<path d="M2283 5268 c-13 -6 -25 -19 -29 -30 -16 -50 68 -67 112 -22 25 24 25
26 8 45 -19 21 -56 24 -91 7z m80 -15 c14 -13 -27 -43 -60 -43 -37 0 -45 22
-15 39 19 12 65 14 75 4z"/>
<path d="M7906 5239 c-32 -17 -56 -32 -54 -35 5 -4 118 55 118 62 0 6 1 6 -64
-27z"/>
<path d="M2570 5237 c-33 -16 -38 -52 -10 -67 28 -15 87 4 95 31 14 42 -34 62
-85 36z m67 -23 c2 -6 -10 -17 -27 -24 -24 -10 -34 -10 -43 -1 -9 10 -8 16 8
27 22 16 56 15 62 -2z"/>
<path d="M7030 5200 c-30 -16 -49 -29 -42 -30 14 0 112 48 112 55 0 9 -15 4
-70 -25z"/>
<path d="M2860 5207 c-17 -8 -25 -21 -25 -37 0 -21 5 -26 33 -28 56 -6 95 45
53 68 -25 13 -30 13 -61 -3z m56 -18 c8 -14 -14 -29 -43 -29 -27 0 -30 15 -5
29 23 14 39 14 48 0z"/>
<path d="M2125 5178 c-22 -11 -45 -37 -45 -49 0 -18 34 -39 64 -39 39 0 86 33
86 60 0 35 -62 52 -105 28z m80 -19 c12 -18 -26 -49 -61 -49 -43 0 -53 18 -24
42 24 20 75 24 85 7z"/>
<path d="M2410 5163 c-8 -3 -23 -12 -32 -21 -44 -38 5 -82 68 -62 35 12 56 52
38 70 -13 12 -56 20 -74 13z m57 -29 c3 -8 2 -19 -3 -24 -15 -15 -58 -21 -74
-10 -13 9 -12 13 9 30 28 24 59 26 68 4z"/>
<path d="M7692 5133 c-29 -14 -51 -27 -49 -30 3 -2 31 9 63 26 71 36 60 39
-14 4z"/>
<path d="M3136 5137 c-29 -21 -16 -51 22 -55 37 -4 62 12 62 38 0 30 -52 40
-84 17z m62 -19 c-5 -15 -58 -24 -58 -9 0 11 17 19 43 20 11 1 17 -4 15 -11z"/>
<path d="M2673 5120 c-37 -22 -40 -32 -17 -54 28 -28 98 -11 110 27 13 40 -45
57 -93 27z m67 -10 c13 -9 12 -12 -4 -25 -22 -17 -62 -20 -71 -6 -6 10 32 41
50 41 5 0 17 -5 25 -10z"/>
<path d="M6830 5092 c-76 -44 -83 -63 -40 -109 40 -45 50 -42 11 2 -17 20 -31
42 -31 50 0 8 27 28 59 45 33 16 62 34 66 40 9 14 8 14 -65 -28z"/>
<path d="M2235 5081 c-30 -13 -58 -48 -51 -66 7 -20 53 -37 80 -29 26 8 66 44
66 60 0 27 -60 50 -95 35z m56 -21 c27 -15 24 -27 -11 -45 -28 -14 -80 -12
-80 4 0 11 15 28 35 39 25 14 32 14 56 2z"/>
<path d="M2969 5071 c-20 -16 -22 -23 -13 -38 17 -27 57 -28 89 -1 26 23 26
25 11 41 -23 22 -58 22 -87 -2z m71 -15 c0 -15 -21 -26 -51 -26 -22 0 -24 11
-7 28 17 17 58 15 58 -2z"/>
<path d="M7488 5034 c-27 -13 -48 -26 -48 -29 0 -4 111 43 119 51 13 13 -31
-1 -71 -22z"/>
<path d="M2509 5035 c-54 -29 -41 -79 20 -77 40 1 68 17 77 44 13 42 -45 61
-97 33z m71 -15 c13 -8 13 -11 0 -24 -24 -24 -80 -25 -80 -1 0 28 51 44 80 25z"/>
<path d="M3241 5016 c-20 -24 -9 -51 21 -54 39 -5 70 15 66 41 -2 17 -11 23
-39 25 -23 2 -40 -2 -48 -12z m69 -16 c0 -11 -48 -25 -56 -17 -4 3 -3 10 1 16
8 14 55 14 55 1z"/>
<path d="M2795 4998 c-29 -16 -35 -29 -24 -50 17 -31 91 -22 110 14 21 39 -37
64 -86 36z m68 -15 c4 -3 2 -12 -4 -20 -13 -15 -65 -18 -74 -4 -12 20 61 42
78 24z"/>
<path d="M2316 4949 c-47 -37 -28 -79 36 -79 28 0 46 7 63 25 29 28 31 38 9
59 -22 22 -76 20 -108 -5z m94 -9 c13 -9 12 -13 -9 -30 -26 -22 -76 -27 -87
-8 -9 15 32 48 60 48 11 0 28 -5 36 -10z"/>
<path d="M7283 4945 c-29 -13 -53 -26 -53 -29 0 -6 110 40 119 49 10 11 -17 2
-66 -20z"/>
<path d="M3092 4944 c-27 -19 -28 -40 -2 -54 25 -13 63 -4 86 21 35 39 -35 68
-84 33z m73 -14 c8 -13 -40 -34 -60 -26 -14 5 -15 9 -5 21 14 17 56 20 65 5z"/>
<path d="M2604 4905 c-20 -20 -23 -28 -14 -45 17 -31 83 -28 117 6 l27 27 -23
18 c-33 27 -77 24 -107 -6z m92 -7 c4 -6 -1 -17 -11 -25 -25 -18 -75 -17 -75
2 0 29 71 48 86 23z"/>
<path d="M3403 4898 c-42 -20 -36 -68 9 -68 47 0 78 38 52 65 -18 17 -30 18
-61 3z m41 -35 c-20 -14 -37 -17 -48 -6 -10 10 35 32 52 25 12 -4 11 -8 -4
-19z"/>
<path d="M6919 4857 c19 -20 43 -39 52 -42 17 -6 174 53 166 61 -2 3 -36 -9
-75 -26 -39 -16 -75 -30 -80 -30 -4 0 -28 17 -53 37 l-44 37 34 -37z"/>
<path d="M2910 4860 c-42 -42 -10 -77 53 -59 39 11 56 41 37 64 -18 21 -67 18
-90 -5z m78 -17 c-4 -21 -56 -39 -70 -25 -17 17 10 42 44 42 22 0 29 -4 26
-17z"/>
<path d="M2425 4825 c-29 -28 -31 -38 -9 -59 46 -46 165 20 124 69 -20 25 -87
19 -115 -10z m101 -7 c9 -15 -32 -48 -60 -48 -11 0 -28 4 -36 10 -12 7 -12 12
4 29 21 23 80 29 92 9z"/>
<path d="M3212 4824 c-28 -20 -28 -42 1 -55 45 -21 105 23 77 56 -16 19 -50
19 -78 -1z m68 -12 c0 -14 -23 -32 -41 -32 -24 0 -35 20 -18 31 18 11 59 12
59 1z"/>
<path d="M2732 4794 c-16 -11 -22 -24 -20 -42 3 -24 8 -27 43 -30 30 -2 46 3
63 18 26 25 27 33 6 54 -20 21 -63 20 -92 0z m84 -16 c10 -15 -24 -38 -58 -38
-30 0 -37 17 -16 38 15 15 65 16 74 0z"/>
<path d="M3529 4762 c-14 -12 -20 -25 -16 -35 9 -24 69 -22 91 2 16 17 16 20
1 35 -22 21 -47 20 -76 -2z m59 -14 c-3 -7 -17 -15 -33 -16 -25 -3 -27 -2 -16
12 16 19 55 22 49 4z"/>
<path d="M3027 4747 c-12 -8 -18 -22 -15 -38 2 -20 9 -25 39 -27 47 -4 89 28
73 55 -14 22 -72 29 -97 10z m76 -14 c13 -12 -15 -33 -44 -33 -30 0 -41 23
-16 33 18 8 53 8 60 0z"/>
<path d="M2532 4720 c-29 -27 -28 -46 3 -66 22 -14 32 -15 64 -6 45 14 71 53
51 77 -19 23 -91 20 -118 -5z m101 -6 c12 -12 -12 -42 -39 -48 -52 -13 -87 19
-46 43 19 12 75 14 85 5z"/>
<path d="M3360 4687 c-37 -19 -35 -61 3 -65 32 -4 77 21 77 43 0 13 -29 35
-47 35 -4 0 -19 -6 -33 -13z m53 -14 c12 -11 -14 -33 -39 -33 -28 0 -31 15 -6
29 20 12 36 14 45 4z"/>
<path d="M2843 4666 c-23 -20 -26 -28 -17 -43 26 -42 124 -20 124 28 0 42 -66
51 -107 15z m84 -12 c8 -21 -13 -34 -54 -34 -36 0 -41 10 -17 34 20 21 63 21
71 0z"/>
<path d="M3154 4630 c-32 -13 -38 -40 -15 -63 16 -17 25 -19 52 -11 17 5 38
19 46 30 26 40 -26 67 -83 44z m66 -25 c0 -19 -36 -38 -60 -30 -26 8 -25 24 3
35 34 13 57 12 57 -5z"/>
<path d="M2673 4615 c-38 -16 -59 -50 -43 -70 29 -35 121 -19 135 25 13 42
-40 68 -92 45z m68 -15 c14 0 11 -26 -4 -39 -20 -16 -70 -23 -86 -12 -13 8
-13 12 -1 26 18 21 51 35 68 29 8 -2 18 -4 23 -4z"/>
<path d="M3677 4612 c-37 -41 28 -71 74 -33 20 16 21 21 10 35 -18 21 -64 20
-84 -2z m63 -11 c0 -11 -39 -25 -47 -18 -3 3 -2 10 2 16 8 13 45 15 45 2z"/>
<path d="M3482 4570 c-28 -12 -38 -36 -22 -55 25 -30 100 -11 100 25 0 11 -9
24 -19 30 -23 12 -28 12 -59 0z m53 -31 c0 -17 -43 -25 -58 -10 -7 7 -3 13 14
20 30 12 44 9 44 -10z"/>
<path d="M2952 4550 c-39 -36 -22 -70 35 -70 33 0 83 36 83 59 0 33 -86 41
-118 11z m93 -9 c7 -13 -34 -41 -62 -41 -29 0 -37 15 -17 34 17 17 69 22 79 7z"/>
<path d="M2795 4503 c-25 -6 -43 -21 -56 -44 -23 -45 80 -70 121 -29 28 28 26
58 -6 70 -27 11 -27 11 -59 3z m49 -19 c41 -16 2 -54 -53 -54 -48 0 -37 40 14
53 11 2 21 5 22 6 1 0 8 -2 17 -5z"/>
<path d="M3280 4497 c-15 -8 -26 -23 -28 -39 -3 -22 2 -27 27 -33 62 -13 121
48 72 75 -25 13 -40 13 -71 -3z m65 -27 c0 -21 -52 -37 -68 -21 -10 10 -8 15
8 27 24 18 60 14 60 -6z"/>
<path d="M3061 4427 c-27 -29 -19 -54 19 -62 32 -7 87 17 97 41 17 45 -77 62
-116 21z m99 -6 c0 -13 -41 -41 -60 -41 -8 0 -22 5 -30 10 -13 9 -12 12 4 25
22 17 86 21 86 6z"/>
<path d="M2905 4380 c-30 -12 -47 -36 -43 -62 3 -21 8 -23 54 -23 58 1 84 16
84 51 0 37 -47 54 -95 34z m72 -26 c9 -23 -23 -44 -64 -44 -25 0 -33 4 -33 18
0 35 85 57 97 26z"/>
<path d="M1170 5886 c0 -8 243 -350 333 -471 617 -820 1411 -1592 2251 -2189
59 -42 110 -76 112 -74 2 2 -61 50 -139 106 -688 492 -1361 1120 -1918 1787
-161 193 -424 541 -547 723 -74 109 -92 132 -92 118z"/>
<path d="M406 5748 c39 -63 459 -632 638 -863 498 -643 1084 -1254 2064 -2154
134 -123 245 -221 247 -219 2 2 -109 107 -247 233 -1233 1126 -1761 1710
-2612 2893 -48 67 -90 122 -93 122 -2 0 -1 -6 3 -12z"/>
<path d="M1815 4861 c224 -262 562 -614 821 -855 128 -120 380 -338 419 -365
22 -15 -17 21 -245 220 -301 264 -641 608 -923 933 -72 83 -135 153 -141 155
-5 2 26 -38 69 -88z"/>
<path d="M1186 4878 c14 -23 187 -242 268 -338 128 -151 299 -340 489 -540
178 -187 869 -861 876 -854 2 2 -63 67 -145 145 -256 244 -833 827 -975 984
-163 182 -316 363 -429 508 -74 96 -105 130 -84 95z"/>
<path d="M10255 5572 c-763 -488 -1781 -1037 -2685 -1447 -746 -339 -1416
-603 -2225 -876 -209 -71 -373 -129 -364 -129 18 0 557 180 829 278 1442 518
2861 1194 4144 1975 215 131 447 276 461 288 30 28 -28 -4 -160 -89z"/>
<path d="M8990 4713 c-235 -128 -865 -446 -1125 -567 -552 -258 -1165 -516
-1690 -713 -110 -41 -204 -79 -210 -84 -5 -6 4 -5 20 1 17 7 118 45 225 85
885 332 1850 769 2700 1223 238 127 282 152 265 152 -6 -1 -89 -44 -185 -97z"/>
<path d="M10271 4770 c-29 -11 -124 -57 -210 -104 -677 -365 -1680 -859 -2666
-1314 -358 -164 -1036 -469 -1219 -548 -121 -51 -170 -98 -186 -178 -14 -69
-7 -116 26 -173 67 -115 195 -157 649 -210 186 -22 723 -25 915 -5 238 24 632
88 696 112 16 6 60 18 99 26 38 8 86 21 107 29 20 8 72 23 116 35 78 20 273
93 497 187 455 190 991 550 1207 810 153 183 258 399 299 608 20 105 18 373
-4 461 -34 142 -89 232 -161 265 -52 24 -97 23 -165 -1z m153 -35 c35 -17 117
-95 100 -95 -6 0 -21 12 -35 26 -62 66 -125 71 -230 16 -41 -21 -193 -100
-339 -176 -928 -483 -2313 -1153 -3325 -1610 -493 -222 -477 -215 -502 -235
-40 -33 -63 -83 -64 -141 l-1 -55 -14 45 c-30 90 5 174 88 216 28 14 162 74
297 134 1124 493 2609 1210 3840 1856 72 38 132 44 185 19z m-113 -147 c-87
-116 -172 -251 -225 -356 -52 -104 -44 -102 12 3 78 144 147 251 259 397 l44
58 40 -20 c21 -11 39 -22 39 -24 0 -2 -35 -51 -78 -108 -147 -195 -279 -433
-340 -613 -88 -260 -81 -483 19 -608 37 -46 35 -54 -30 -101 l-43 -31 -34 40
c-76 91 -108 199 -108 360 1 255 87 515 270 813 126 206 194 292 229 292 21 0
16 -10 -54 -102z m-41 47 c-13 -14 -28 -25 -32 -25 -5 0 -93 -44 -196 -99
-1153 -610 -2623 -1325 -3839 -1866 -73 -33 -130 -61 -128 -63 7 -8 908 403
1515 691 768 363 1642 799 2319 1156 179 94 326 171 328 171 7 0 -20 -45 -48
-81 -16 -20 -41 -40 -56 -44 -16 -3 -172 -82 -348 -174 -865 -455 -1791 -910
-2765 -1358 -423 -195 -952 -433 -962 -433 -12 0 -10 48 2 55 6 4 8 10 5 14
-13 22 70 80 174 121 111 44 795 357 1286 590 712 337 1772 865 2520 1253 121
63 226 115 234 116 10 1 7 -7 -9 -24z m243 -32 c22 -26 34 -79 52 -238 26
-234 -1 -445 -78 -609 -74 -156 -228 -369 -255 -352 -22 14 -51 83 -61 147
l-10 64 4 -70 c4 -54 11 -79 34 -116 l29 -47 -50 -48 -49 -49 -20 25 c-11 14
-34 54 -51 89 -57 118 -50 304 20 516 34 105 145 325 222 445 68 104 181 259
191 260 3 0 13 -8 22 -17z m-363 -140 c-1 -28 -85 -75 -490 -280 -250 -126
-644 -327 -875 -446 -490 -252 -1005 -501 -1995 -964 -656 -306 -716 -332
-727 -316 -8 9 -12 22 -10 27 2 6 53 33 113 59 496 221 1257 573 1769 818 388
185 1374 678 1720 859 501 263 495 260 495 243z m-55 -96 c-46 -71 -1832 -996
-2782 -1441 -483 -226 -1171 -536 -1190 -536 -6 0 -18 9 -28 20 -18 19 -17 20
56 54 1050 480 2206 1037 2894 1394 458 237 1059 541 1063 537 2 -2 -4 -15
-13 -28z m-46 -71 c-59 -58 -1752 -933 -2459 -1271 -590 -283 -1423 -658
-1449 -653 -8 2 91 50 219 107 1117 495 2461 1160 3505 1734 178 98 219 116
184 83z m548 -38 c-3 -8 -6 -5 -6 6 -1 11 2 17 5 13 3 -3 4 -12 1 -19z m-579
-29 c-25 -45 -64 -68 -908 -523 -1010 -546 -1817 -943 -2515 -1238 -104 -44
-221 -96 -258 -115 -66 -33 -70 -33 -114 -21 -26 7 -48 18 -50 23 -2 6 84 48
190 94 883 387 1907 884 2912 1414 332 175 730 389 740 398 23 22 25 6 3 -32z
m-37 -78 c-6 -10 -111 -72 -233 -138 -123 -66 -376 -205 -563 -308 -751 -415
-1809 -939 -2450 -1215 -137 -59 -285 -124 -328 -145 -48 -23 -84 -34 -95 -30
-23 9 24 32 264 133 810 339 1845 860 3174 1595 124 69 229 125 233 126 4 1 3
-7 -2 -18z m-21 -46 c0 -3 -6 -20 -14 -38 -12 -28 -54 -55 -332 -209 -885
-490 -1887 -1009 -2757 -1426 l-318 -153 -80 12 c-43 6 -81 15 -84 19 -5 9 89
53 360 168 299 127 776 354 1395 664 563 281 644 323 1205 633 596 329 625
344 625 330z m-42 -106 c-17 -26 -671 -387 -1403 -775 -484 -256 -1433 -728
-1833 -912 -29 -13 -51 -26 -49 -28 8 -8 555 255 1054 505 654 328 1050 537
1861 981 194 106 355 191 357 188 2 -2 -1 -15 -8 -28 -13 -25 -65 -57 -497
-300 -829 -466 -1926 -1032 -2495 -1287 -55 -25 -115 -54 -133 -65 -28 -17
-43 -19 -85 -13 -29 3 -67 6 -84 6 -18 -1 -33 2 -32 6 0 4 53 33 117 63 253
118 1136 556 1482 735 588 303 1230 649 1605 863 77 44 144 80 149 81 5 1 2
-9 -6 -20z m-39 -130 c-19 -28 -860 -497 -1484 -828 -343 -182 -965 -492
-1185 -591 -113 -50 -251 -116 -308 -146 -100 -52 -132 -63 -132 -46 0 11 -1
10 345 173 763 359 1903 958 2634 1385 69 40 130 74 135 74 5 0 2 -9 -5 -21z
m-17 -88 c-9 -26 -270 -176 -1012 -581 -677 -369 -1179 -627 -1681 -865 l-202
-96 -69 7 -69 7 68 37 c37 21 175 86 305 145 535 241 1408 698 2433 1272 236
132 251 137 227 74z m-12 -56 c0 -7 -30 -31 -67 -51 -86 -47 -370 -204 -631
-351 -435 -243 -1399 -747 -1683 -879 -203 -94 -379 -182 -393 -195 -6 -5 -23
-9 -40 -9 -42 0 -28 10 104 70 507 231 1452 727 2400 1259 168 94 306 171 308
171 1 0 2 -7 2 -15z m0 -42 c-1 -18 -24 -35 -190 -132 -385 -227 -1808 -997
-2204 -1192 -240 -119 -241 -119 -306 -117 l-65 3 175 86 c96 47 231 112 300
145 294 139 1256 646 1675 882 310 175 597 332 607 332 4 0 8 -3 8 -7z m-12
-90 c1 -26 4 -59 7 -73 5 -24 -8 -33 -227 -160 -704 -407 -1946 -1087 -2003
-1096 -29 -5 -29 -5 10 21 22 14 81 47 130 72 345 175 2091 1151 2080 1162 -3
2 -231 -125 -507 -282 -754 -427 -1212 -680 -1548 -855 -80 -41 -160 -86 -178
-99 -29 -21 -48 -26 -147 -31 -63 -4 -115 -5 -114 -2 0 3 93 50 206 105 444
216 1138 588 1753 940 184 106 379 216 433 245 54 29 96 54 94 57 -6 5 -144
-70 -509 -280 -703 -404 -1984 -1077 -2048 -1077 -15 1 110 69 305 168 529
269 1691 899 2056 1115 107 64 197 116 200 116 4 1 7 -20 7 -46z m21 -179 c1
-18 -44 -47 -271 -176 -435 -247 -936 -521 -1509 -825 -208 -111 -232 -121
-308 -132 -46 -7 -85 -10 -87 -8 -3 2 19 17 48 32 391 203 1426 776 1913 1059
191 111 200 115 207 94 3 -13 6 -33 7 -44z m11 -42 c0 -23 -944 -553 -1670
-937 -102 -54 -192 -104 -200 -110 -14 -12 -110 -33 -100 -22 3 3 46 27 95 53
439 230 1350 729 1695 928 167 96 180 102 180 88z m22 -47 c6 -14 9 -27 7 -29
-12 -10 -417 -256 -564 -343 -232 -136 -595 -342 -795 -448 -91 -49 -172 -94
-180 -100 -29 -24 -177 -61 -310 -79 l-45 -6 70 36 c415 216 1282 694 1610
888 99 58 183 106 188 106 4 0 13 -11 19 -25z m16 -60 c-13 -13 -370 -231
-608 -372 -182 -108 -455 -264 -620 -353 -74 -41 -146 -82 -159 -92 -26 -20
-129 -53 -138 -45 -3 3 28 22 68 43 253 126 1066 595 1374 792 43 28 83 48 88
45 5 -3 3 -11 -5 -18z m32 -24 c9 -18 2 -25 -57 -64 -165 -106 -838 -508
-1078 -643 -48 -27 -223 -86 -243 -82 -8 2 55 41 139 87 280 153 926 533 1175
690 26 17 49 31 51 31 1 0 7 -9 13 -19z m40 -46 c15 -18 17 -15 -65 -77 -163
-123 -414 -277 -610 -376 -148 -73 -446 -198 -420 -174 6 5 129 78 275 162
285 165 526 310 690 414 57 36 107 66 111 66 3 0 12 -7 19 -15z"/>
<path d="M10091 3823 c-40 -147 -44 -298 -11 -387 12 -32 36 -72 52 -90 l30
-31 -33 49 c-17 27 -38 69 -45 94 -20 65 -17 202 6 306 20 90 20 132 1 59z"/>
<path d="M10605 4592 c76 -276 54 -591 -61 -849 -12 -29 -19 -53 -15 -53 13 0
71 157 97 260 32 131 45 287 33 413 -10 102 -32 209 -50 237 -7 11 -8 9 -4 -8z"/>
<path d="M10758 4260 c-4 -30 -8 -77 -8 -105 0 -58 -24 -201 -45 -271 -8 -26
-12 -50 -10 -52 22 -23 81 331 73 438 l-3 45 -7 -55z"/>
<path d="M9855 2704 c-374 -262 -1114 -574 -1745 -738 -998 -258 -2159 -284
-3403 -76 -125 21 -143 23 -135 15 6 -6 130 -28 343 -59 1174 -173 2259 -135
3205 110 432 112 987 323 1365 518 151 78 419 238 431 257 10 17 -11 8 -61
-27z"/>
<path d="M7975 2049 c-98 -27 -376 -84 -525 -108 -686 -111 -1411 -120 -2137
-24 -26 3 -45 3 -42 -1 7 -8 176 -29 409 -52 222 -21 793 -30 1035 -15 378 23
674 61 1010 131 202 41 329 72 340 82 14 12 -11 9 -90 -13z"/>
<path d="M11400 5487 c0 -8 111 -89 116 -84 3 2 -17 20 -43 39 -58 42 -73 50
-73 45z"/>
<path d="M11485 5466 c40 -33 105 -69 105 -59 -1 11 -108 83 -123 83 -7 0 2
-11 18 -24z"/>
<path d="M11520 5487 c0 -8 102 -79 106 -74 2 2 -15 17 -39 34 -52 37 -67 46
-67 40z"/>
<path d="M11610 5466 c14 -18 103 -76 115 -76 5 0 -19 20 -53 45 -63 46 -84
56 -62 31z"/>
<path d="M11350 5466 c0 -10 101 -78 107 -72 7 7 10 4 -49 44 -45 31 -58 37
-58 28z"/>
<path d="M11284 5442 c9 -14 96 -75 101 -70 1 1 -22 21 -53 42 -30 21 -52 34
-48 28z"/>
<path d="M11240 5421 c0 -13 100 -84 108 -76 4 3 2 9 -4 13 -5 4 -31 22 -57
40 -26 18 -47 29 -47 23z"/>
<path d="M11179 5343 c19 -15 43 -35 54 -44 12 -9 17 -21 13 -28 -8 -12 -27
-3 -99 44 -15 9 -27 13 -27 8 0 -11 106 -93 118 -93 4 0 15 12 25 25 l17 24
-52 39 c-66 48 -95 63 -49 25z"/>
<path d="M11590 5352 c0 -5 25 -26 55 -48 30 -21 55 -42 55 -46 0 -19 -32 -5
-89 37 -34 25 -67 45 -73 45 -7 0 19 -23 57 -50 48 -36 77 -50 94 -48 41 5 31
26 -36 74 -35 25 -63 41 -63 36z"/>
<path d="M11656 5347 c11 -7 36 -24 55 -39 59 -46 131 -62 98 -21 -18 21 -99
76 -105 70 -2 -2 19 -20 48 -40 29 -21 45 -37 36 -37 -9 0 -40 18 -69 40 -30
22 -60 40 -69 40 -11 -1 -9 -4 6 -13z"/>
<path d="M11780 5345 c0 -7 121 -87 126 -82 4 4 -109 87 -120 87 -3 0 -6 -2
-6 -5z"/>
<path d="M11494 5287 c110 -82 115 -117 6 -42 -39 27 -72 46 -75 43 -8 -7 128
-98 147 -98 44 0 21 43 -47 90 -50 34 -75 40 -31 7z"/>
<path d="M11098 5242 c41 -35 46 -52 16 -52 -7 0 -26 11 -42 25 -17 14 -33 21
-36 16 -4 -5 13 -21 36 -35 31 -19 46 -22 60 -15 28 15 22 34 -21 68 -55 44
-65 38 -13 -7z"/>
<path d="M11322 5215 c-28 -20 -52 -38 -52 -41 0 -3 15 4 33 16 17 12 47 28
65 36 32 14 34 14 87 -23 30 -21 55 -40 55 -43 0 -3 -25 -20 -56 -39 -30 -18
-53 -35 -50 -38 3 -3 32 12 65 33 57 37 59 40 43 58 -27 30 -99 76 -119 76
-10 0 -42 -16 -71 -35z"/>
<path d="M11133 5081 c-29 -26 -53 -53 -53 -59 0 -10 115 -92 129 -92 11 0
121 93 116 98 -2 3 -30 -16 -61 -41 l-56 -47 -60 42 -60 43 58 52 c33 29 55
53 49 53 -5 0 -34 -22 -62 -49z"/>
<path d="M11040 4956 c0 -2 18 -16 40 -31 65 -45 50 -75 -17 -34 -50 31 -51
17 -1 -16 31 -20 46 -25 57 -18 30 19 23 41 -20 72 -38 28 -59 38 -59 27z"/>
<path d="M1621 3084 c24 -29 46 -50 49 -48 2 3 -18 26 -45 52 l-48 47 44 -51z"/>
<path d="M1580 2804 c0 -5 21 -30 47 -54 l47 -45 -38 45 c-56 65 -56 65 -56
54z"/>
<path d="M12086 5061 c-3 -4 5 -17 17 -28 32 -30 77 -57 77 -47 0 5 -17 20
-38 33 -20 13 -32 26 -25 28 6 2 31 -10 54 -26 23 -17 45 -28 48 -25 3 4 1 9
-6 11 -7 2 -28 18 -49 34 -36 29 -68 37 -78 20z"/>
<path d="M12190 5055 c0 -8 89 -65 102 -65 7 0 -11 16 -39 35 -51 34 -63 40
-63 30z"/>
<path d="M11976 5042 c-2 -4 -2 -12 2 -18 13 -18 82 -67 88 -61 3 3 -13 18
-35 33 -23 14 -41 31 -41 35 0 18 28 8 75 -26 27 -19 51 -32 54 -29 3 3 -1 9
-9 14 -8 5 -30 20 -49 34 -34 25 -75 34 -85 18z"/>
<path d="M11864 5006 c-22 -17 -11 -34 43 -67 49 -30 52 -17 3 15 -40 26 -52
46 -27 46 8 0 33 -14 56 -31 50 -36 67 -33 19 3 -57 43 -73 49 -94 34z"/>
<path d="M12305 4924 c36 -28 61 -36 30 -10 -16 14 -34 26 -40 26 -5 -1 -1 -8
10 -16z"/>
<path d="M12225 4895 c33 -28 37 -34 19 -35 -11 0 -39 14 -62 31 -23 17 -42
26 -42 21 0 -14 67 -63 98 -71 27 -8 26 -8 -13 -21 -22 -7 -49 -20 -60 -28
-22 -16 -13 -14 63 18 64 28 67 47 13 89 -53 42 -66 39 -16 -4z"/>
<path d="M12060 4885 c0 -3 18 -17 40 -31 22 -15 40 -31 40 -35 0 -17 -28 -9
-68 21 -23 17 -44 30 -48 30 -12 0 9 -21 49 -49 32 -22 47 -26 64 -20 30 11
21 31 -28 63 -38 26 -49 30 -49 21z"/>
<path d="M11862 4843 c-34 -20 -62 -41 -62 -45 0 -5 6 -6 13 -1 6 4 36 22 65
40 l54 32 49 -36 c53 -38 68 -55 53 -60 -22 -8 -106 -65 -101 -69 6 -6 127 69
127 78 0 8 -120 98 -130 98 -3 0 -33 -17 -68 -37z"/>
<path d="M11669 4708 c-29 -24 -54 -48 -56 -55 -2 -6 25 -32 61 -58 l66 -47
60 48 c33 26 58 49 55 52 -2 3 -21 -8 -41 -24 -78 -62 -69 -60 -129 -20 -30
20 -55 40 -55 45 0 10 59 64 87 79 10 6 15 13 12 17 -4 3 -31 -13 -60 -37z"/>
<path d="M12002 4703 c-29 -20 -50 -38 -48 -40 4 -4 116 67 116 73 0 9 -19 0
-68 -33z"/>
<path d="M11401 4676 c-9 -11 -9 -20 -2 -34 13 -24 79 -67 89 -57 4 3 -1 11
-10 16 -9 5 -31 21 -48 36 -24 19 -28 28 -18 34 7 5 21 3 33 -5 11 -7 32 -21
48 -31 43 -28 31 -12 -17 23 -50 36 -59 38 -75 18z"/>
<path d="M11850 4588 c-14 -11 -36 -29 -49 -39 -13 -11 -22 -21 -19 -24 2 -2
26 15 54 40 50 45 60 62 14 23z"/>
<path d="M11304 4573 c-5 -10 -9 -25 -7 -34 5 -19 57 -51 68 -41 5 4 5 2 1 -5
-9 -15 13 -28 26 -15 7 7 -2 18 -30 36 -46 29 -58 44 -45 57 6 6 26 -2 54 -21
62 -42 73 -38 13 5 -56 40 -65 42 -80 18z"/>
<path d="M11639 4530 c23 -17 39 -35 36 -40 -10 -16 -25 -12 -65 20 -29 23
-39 27 -43 16 -7 -18 64 -69 89 -64 9 1 22 11 28 21 9 16 5 23 -24 48 -19 16
-41 29 -49 29 -8 0 5 -14 28 -30z m-29 -31 c17 -13 18 -17 5 -10 -33 17 -51
31 -40 31 6 0 21 -10 35 -21z"/>
<path d="M11220 4475 c-6 -8 -10 -22 -8 -32 4 -21 85 -80 95 -69 9 9 -56 65
-76 66 -8 0 -11 6 -7 16 3 9 6 18 6 20 0 11 22 1 64 -31 25 -20 46 -32 46 -28
0 8 -90 73 -101 73 -4 0 -12 -7 -19 -15z"/>
<path d="M11500 4461 c0 -4 18 -20 40 -35 22 -14 40 -30 40 -34 0 -20 -15 -20
-42 0 -19 13 -33 17 -39 11 -12 -12 48 -54 67 -46 16 6 25 29 18 47 -7 17 -84
70 -84 57z"/>
<path d="M11661 4415 c-57 -62 -51 -69 9 -10 28 27 50 51 50 52 0 13 -24 -4
-59 -42z"/>
<path d="M11465 4421 c-7 -12 12 -24 25 -16 11 7 4 25 -10 25 -5 0 -11 -4 -15
-9z"/>
<path d="M11440 4341 c19 -17 38 -31 43 -31 11 0 8 -30 -4 -30 -16 0 -51 20
-76 43 -18 16 -23 17 -23 6 0 -13 76 -79 95 -83 4 0 14 8 21 20 13 18 12 24
-5 45 -10 13 -34 32 -52 42 l-34 19 35 -31z"/>
<path d="M11121 4346 c-6 -7 -9 -21 -5 -29 7 -18 68 -67 83 -67 21 0 10 15
-29 43 -39 27 -53 57 -27 57 6 0 30 -14 51 -30 22 -17 42 -28 44 -25 3 3 3 6
1 8 -90 62 -100 65 -118 43z"/>
<path d="M11511 4243 c-23 -27 -41 -52 -41 -56 0 -7 19 14 79 86 8 9 12 17 8
17 -3 0 -24 -21 -46 -47z"/>
<path d="M11040 4230 c-8 -16 -7 -25 7 -44 19 -26 80 -63 88 -54 6 6 -59 58
-73 58 -6 0 -13 7 -16 15 -9 25 20 29 51 8 39 -28 53 -35 53 -29 0 6 -86 66
-94 66 -3 0 -10 -9 -16 -20z"/>
<path d="M11348 4210 c40 -29 56 -60 30 -60 -6 0 -26 12 -45 26 -49 37 -55 19
-8 -21 48 -41 58 -42 79 -10 16 24 16 25 -31 60 -27 19 -52 35 -57 35 -5 0 10
-14 32 -30z"/>
<path d="M11230 4123 c0 -4 20 -21 44 -36 29 -18 43 -33 39 -43 -7 -20 -13
-18 -60 16 -28 21 -43 26 -45 18 -5 -14 64 -68 87 -68 14 0 44 46 34 53 -2 2
-20 14 -39 28 -49 35 -60 41 -60 32z"/>
<path d="M11388 4078 c-27 -36 -51 -78 -45 -78 4 0 45 57 70 97 16 26 -1 12
-25 -19z"/>
<path d="M11190 3985 c0 -3 12 -17 28 -30 20 -18 24 -26 16 -35 -8 -8 -14 -9
-18 -1 -11 17 -25 13 -22 -5 1 -9 11 -21 21 -27 14 -7 21 -6 32 9 20 27 16 39
-22 68 -19 15 -35 24 -35 21z"/>
<path d="M11252 3859 c-18 -33 -28 -58 -23 -54 13 7 71 115 63 115 -4 0 -22
-28 -40 -61z"/>
<path d="M11156 3659 c-15 -34 -24 -64 -22 -67 3 -3 10 6 15 19 5 13 16 42 25
63 9 22 15 41 13 43 -2 2 -16 -24 -31 -58z"/>
<path d="M380 4487 c0 -10 59 -97 66 -97 6 0 -21 47 -47 81 -10 13 -19 20 -19
16z"/>
<path d="M12210 4407 c-93 -397 -344 -765 -666 -979 -150 -99 -196 -128 -207
-128 -6 0 -8 -2 -5 -5 6 -6 59 15 68 26 3 4 33 23 68 44 325 190 598 535 711
900 17 55 37 119 45 143 7 23 10 44 6 47 -4 3 -14 -19 -20 -48z"/>
<path d="M10214 2540 c-1659 -1131 -3617 -1934 -5628 -2306 -115 -22 -202 -40
-194 -42 9 -2 103 13 209 33 2024 380 3926 1160 5614 2302 189 128 180 122
174 126 -2 2 -81 -49 -175 -113z"/>
<path d="M4650 1520 c0 -7 255 -44 510 -75 670 -80 1327 -96 1810 -45 173 19
340 43 340 50 0 3 -57 -2 -127 -12 -478 -67 -1067 -71 -1713 -13 -165 15 -567
64 -732 89 -49 7 -88 10 -88 6z"/>
<path d="M7440 1174 c-618 -254 -1611 -569 -2193 -695 -32 -7 -61 -17 -64 -22
-3 -5 3 -7 13 -4 11 3 129 33 264 66 494 121 962 264 1492 457 184 66 589 223
597 230 14 13 -35 -2 -109 -32z"/>
<path d="M5397 1053 c18 -2 50 -2 70 0 21 2 7 4 -32 4 -38 0 -55 -2 -38 -4z"/>
<path d="M5241 1029 c-52 -21 -91 -42 -91 -49 0 -4 21 3 47 16 25 13 52 24 60
24 7 0 13 5 13 10 0 6 -1 10 -2 9 -2 0 -14 -5 -27 -10z"/>
<path d="M5615 1017 c11 -7 37 -29 58 -50 20 -21 37 -34 37 -29 0 13 -73 78
-95 85 l-20 6 20 -12z"/>
<path d="M5495 995 c65 -17 101 -17 50 0 -22 8 -53 13 -70 13 -24 0 -19 -3 20
-13z"/>
<path d="M5270 980 c-30 -10 -46 -18 -35 -18 11 0 43 8 70 18 65 24 37 24 -35
0z"/>
<path d="M5655 870 c0 -34 4 -55 9 -50 5 5 9 27 9 50 0 23 -4 45 -9 50 -5 5
-9 -16 -9 -50z"/>
<path d="M5030 878 c-16 -22 -30 -50 -30 -62 1 -16 4 -13 15 12 8 18 24 47 35
63 12 16 19 29 16 29 -3 0 -19 -19 -36 -42z"/>
<path d="M5101 880 c-22 -22 -41 -45 -41 -52 0 -6 1 -9 3 -7 2 2 23 25 47 52
52 57 47 62 -9 7z"/>
<path d="M5707 818 c-4 -14 -19 -40 -33 -57 -14 -17 -21 -31 -16 -31 15 0 64
80 60 98 -3 12 -6 9 -11 -10z"/>
<path d="M5528 711 c-27 -14 -48 -29 -48 -34 0 -8 64 23 95 47 30 23 6 17 -47
-13z"/>
<path d="M5065 717 c9 -21 66 -57 91 -57 12 1 6 6 -16 16 -19 8 -45 25 -58 37
-18 17 -22 18 -17 4z"/>
<path d="M5020 694 c0 -13 36 -47 67 -63 38 -20 37 -12 -3 15 -21 15 -44 34
-51 43 -7 9 -13 11 -13 5z"/>
<path d="M5501 642 c-34 -15 -58 -28 -52 -30 12 -4 121 43 121 52 0 4 -1 5 -2
5 -2 -1 -32 -13 -67 -27z"/>
<path d="M5318 652 c-33 -2 -58 -8 -58 -14 0 -10 108 -3 119 8 8 8 -4 9 -61 6z"/>
<path d="M5232 588 c16 -10 89 -10 105 0 6 4 -18 7 -53 8 -36 0 -59 -3 -52 -8z"/>
</g>
</svg>
